<svg width="52" height="52" viewBox="0 0 52 52" fill="none" xmlns="http://www.w3.org/2000/svg">
<g filter="url(#filter0_d_1_1821)">
<rect x="6" y="6" width="32" height="32" rx="8" fill="white" shape-rendering="crispEdges"/>
<rect x="6.5" y="6.5" width="31" height="31" rx="7.5" stroke="#808080" shape-rendering="crispEdges"/>
<mask id="path-3-inside-1_1_1821" fill="white">
<path d="M17 17C17.8392 17 18.5567 17.5172 18.8535 18.25H28C28.4142 18.25 28.75 18.5858 28.75 19C28.75 19.4142 28.4142 19.75 28 19.75H18.8535C18.5567 20.4828 17.8392 21 17 21C15.8954 21 15 20.1046 15 19C15 17.8954 15.8954 17 17 17Z"/>
</mask>
<path d="M17 17C17.8392 17 18.5567 17.5172 18.8535 18.25H28C28.4142 18.25 28.75 18.5858 28.75 19C28.75 19.4142 28.4142 19.75 28 19.75H18.8535C18.5567 20.4828 17.8392 21 17 21C15.8954 21 15 20.1046 15 19C15 17.8954 15.8954 17 17 17Z" fill="#808080"/>
<path d="M18.8535 18.25L17.9267 18.6254L18.1796 19.25H18.8535V18.25ZM28 18.25V17.25V18.25ZM28.75 19H29.75V19L28.75 19ZM28 19.75V18.75V19.75ZM18.8535 19.75V18.75H18.1796L17.9267 19.3746L18.8535 19.75ZM17 17V18C17.4172 18 17.7772 18.2564 17.9267 18.6254L18.8535 18.25L19.7804 17.8746C19.3363 16.7781 18.2612 16 17 16V17ZM18.8535 18.25V19.25H28V18.25V17.25H18.8535V18.25ZM28 18.25V19.25C27.8619 19.25 27.75 19.1381 27.75 19L28.75 19L29.75 19C29.75 18.0335 28.9665 17.25 28 17.25V18.25ZM28.75 19L27.75 19C27.75 18.8619 27.8619 18.75 28 18.75V19.75V20.75C28.9665 20.75 29.75 19.9665 29.75 19H28.75ZM28 19.75V18.75H18.8535V19.75V20.75H28V19.75ZM18.8535 19.75L17.9267 19.3746C17.7772 19.7436 17.4172 20 17 20V21V22C18.2612 22 19.3363 21.2219 19.7804 20.1254L18.8535 19.75ZM17 21V20C16.4477 20 16 19.5523 16 19H15H14C14 20.6569 15.3431 22 17 22V21ZM15 19H16C16 18.4477 16.4477 18 17 18V17V16C15.3431 16 14 17.3431 14 19H15Z" fill="#808080" mask="url(#path-3-inside-1_1_1821)"/>
<mask id="path-5-inside-2_1_1821" fill="white">
<path d="M27 23C28.1046 23 29 23.8954 29 25C29 26.1046 28.1046 27 27 27C26.1608 27 25.4433 26.4828 25.1465 25.75H16C15.5858 25.75 15.25 25.4142 15.25 25C15.25 24.5858 15.5858 24.25 16 24.25H25.1465C25.4433 23.5172 26.1608 23 27 23Z"/>
</mask>
<path d="M27 23C28.1046 23 29 23.8954 29 25C29 26.1046 28.1046 27 27 27C26.1608 27 25.4433 26.4828 25.1465 25.75H16C15.5858 25.75 15.25 25.4142 15.25 25C15.25 24.5858 15.5858 24.25 16 24.25H25.1465C25.4433 23.5172 26.1608 23 27 23Z" fill="#808080"/>
<path d="M25.1465 25.75L26.0733 25.3746L25.8204 24.75H25.1465V25.75ZM16 25.75L16 26.75H16V25.75ZM15.25 25L14.25 25V25H15.25ZM16 24.25V25.25V24.25ZM25.1465 24.25V25.25H25.8204L26.0733 24.6254L25.1465 24.25ZM27 23V24C27.5523 24 28 24.4477 28 25H29H30C30 23.3431 28.6569 22 27 22V23ZM29 25H28C28 25.5523 27.5523 26 27 26V27V28C28.6569 28 30 26.6569 30 25H29ZM27 27V26C26.5828 26 26.2228 25.7436 26.0733 25.3746L25.1465 25.75L24.2196 26.1254C24.6637 27.2219 25.7388 28 27 28V27ZM25.1465 25.75V24.75H16V25.75V26.75H25.1465V25.75ZM16 25.75L16 24.75C16.1381 24.75 16.25 24.8619 16.25 25H15.25H14.25C14.25 25.9665 15.0335 26.75 16 26.75L16 25.75ZM15.25 25H16.25C16.25 25.1381 16.1381 25.25 16 25.25V24.25V23.25C15.0335 23.25 14.25 24.0335 14.25 25L15.25 25ZM16 24.25V25.25H25.1465V24.25V23.25H16V24.25ZM25.1465 24.25L26.0733 24.6254C26.2228 24.2564 26.5828 24 27 24V23V22C25.7388 22 24.6637 22.7781 24.2196 23.8746L25.1465 24.25Z" fill="#808080" mask="url(#path-5-inside-2_1_1821)"/>
</g>
<defs>
<filter id="filter0_d_1_1821" x="0" y="0" width="52" height="52" filterUnits="userSpaceOnUse" color-interpolation-filters="sRGB">
<feFlood flood-opacity="0" result="BackgroundImageFix"/>
<feColorMatrix in="SourceAlpha" type="matrix" values="0 0 0 0 0 0 0 0 0 0 0 0 0 0 0 0 0 0 127 0" result="hardAlpha"/>
<feOffset dx="4" dy="4"/>
<feGaussianBlur stdDeviation="5"/>
<feComposite in2="hardAlpha" operator="out"/>
<feColorMatrix type="matrix" values="0 0 0 0 0.935124 0 0 0 0 0.935124 0 0 0 0 0.935124 0 0 0 0.1 0"/>
<feBlend mode="normal" in2="BackgroundImageFix" result="effect1_dropShadow_1_1821"/>
<feBlend mode="normal" in="SourceGraphic" in2="effect1_dropShadow_1_1821" result="shape"/>
</filter>
</defs>
</svg>
