<svg width="18" height="20" viewBox="0 0 18 20" fill="none" xmlns="http://www.w3.org/2000/svg">
<path d="M8 11.8867V19.8398C7.68299 19.6713 7.31108 19.4337 6.83106 19.124L1.83105 15.8984C0.935436 15.3206 0.487934 15.0312 0.244141 14.584C0.000346791 14.1366 2.49561e-07 13.6033 2.49561e-07 12.5371V7.60547C2.52984e-07 6.94047 -0.000610654 6.48279 0.058594 6.12402L8 11.8867ZM17.9404 6.12402C17.9997 6.48281 18 6.94038 18 7.60547V12.5371C18 13.6033 17.9997 14.1366 17.7559 14.584C17.5121 15.0312 17.0646 15.3206 16.1689 15.8984L11.1689 19.124C10.6889 19.4337 10.317 19.6713 10 19.8398V11.8867L17.9404 6.12402ZM9 0C9.58918 0 10.1161 0.339264 11.1689 1.01855L16.1689 4.24512C16.3554 4.36543 16.522 4.47394 16.6719 4.57324L9 10.1416L1.32715 4.57324C1.47718 4.47381 1.64429 4.36561 1.83105 4.24512L6.83106 1.01855C7.88395 0.339263 8.41082 0 9 0Z" fill="#F9502E"/>
</svg>
