<svg width="21" height="21" viewBox="0 0 21 21" fill="none" xmlns="http://www.w3.org/2000/svg">
<path d="M10.0343 19.0114C8.9245 20.1213 7.5874 20.6762 6.02303 20.6763C4.45866 20.6764 3.12163 20.1216 2.01193 19.0119C0.902224 17.9022 0.347263 16.565 0.347042 15.0003C0.346821 13.4356 0.901627 12.0984 2.01146 10.9885L4.6801 8.3199C4.86793 8.13207 5.08892 8.03819 5.34308 8.03827C5.59724 8.03831 5.81828 8.13229 6.00619 8.32021C6.19409 8.5081 6.28797 8.72904 6.28782 8.98301C6.28769 9.23696 6.19371 9.45785 6.00588 9.64568L3.33623 12.3153C2.59466 13.0569 2.22388 13.9518 2.22388 15C2.22388 16.0482 2.595 16.9434 3.33724 17.6856C4.07948 18.4279 4.9747 18.799 6.0229 18.799C7.0711 18.799 7.96598 18.4282 8.70754 17.6867L11.3772 15.017C11.565 14.8292 11.786 14.7353 12.0402 14.7353C12.2943 14.7354 12.5154 14.8294 12.7033 15.0173C12.8912 15.2052 12.9851 15.4261 12.9849 15.6801C12.9848 15.9341 12.8908 16.1549 12.703 16.3428L10.0343 19.0114ZM8.41955 13.9291C8.23172 14.1169 8.01074 14.2108 7.75659 14.2108C7.50242 14.2107 7.28138 14.1167 7.09348 13.9288C6.90557 13.7409 6.81168 13.52 6.81183 13.266C6.81196 13.012 6.90594 12.7912 7.09377 12.6033L12.3971 7.30003C12.5849 7.1122 12.8059 7.01831 13.06 7.01836C13.3142 7.01843 13.5352 7.11241 13.7231 7.30031C13.9111 7.48823 14.0049 7.70916 14.0048 7.96312C14.0047 8.21709 13.9107 8.43798 13.7229 8.62581L8.41955 13.9291ZM16.1365 12.9092C15.9487 13.0971 15.7277 13.1909 15.4735 13.1909C15.2194 13.1908 14.9983 13.0968 14.8104 12.9089C14.6225 12.721 14.5287 12.5001 14.5288 12.2461C14.5289 11.9922 14.6229 11.7713 14.8107 11.5835L17.4804 8.9138C18.222 8.17224 18.5927 7.27736 18.5927 6.22916C18.5927 5.18096 18.2216 4.28574 17.4794 3.5435C16.7371 2.80126 15.8419 2.43014 14.7937 2.43014C13.7455 2.43014 12.8506 2.80092 12.1091 3.54248L9.43942 6.21214C9.25159 6.39997 9.03061 6.49385 8.77646 6.49379C8.52229 6.49373 8.30125 6.39975 8.11335 6.21186C7.92544 6.02394 7.83155 5.803 7.8317 5.54903C7.83183 5.29508 7.92581 5.07419 8.11364 4.88636L10.7823 2.21772C11.8921 1.10789 13.2292 0.552918 14.7936 0.552815C16.358 0.552711 17.695 1.10751 18.8047 2.21721C19.9144 3.32691 20.4694 4.66411 20.4696 6.2288C20.4698 7.7935 19.915 9.13076 18.8052 10.2406L16.1365 12.9092Z" fill="#ABABAB"/>
</svg>
