<svg width="18" height="18" viewBox="0 0 18 18" fill="none" xmlns="http://www.w3.org/2000/svg">
<path d="M9.00803 0.675781C9.65618 0.675821 10.2821 0.911924 10.7689 1.33995L10.8972 1.46078L11.4789 2.04245C11.6385 2.20104 11.8469 2.30116 12.0705 2.32661L12.183 2.33328H13.0164C13.6974 2.33324 14.3526 2.59376 14.8477 3.0614C15.3427 3.52904 15.6401 4.16837 15.6789 4.84828L15.683 4.99995V5.83328C15.683 6.05828 15.7597 6.27745 15.898 6.45245L15.973 6.53578L16.5539 7.11745C17.0353 7.59616 17.316 8.24046 17.3388 8.91901C17.3615 9.59755 17.1246 10.2592 16.6764 10.7691L16.5555 10.8974L15.9739 11.4791C15.8153 11.6387 15.7151 11.8472 15.6897 12.0708L15.683 12.1833V13.0166C15.6831 13.6976 15.4226 14.3529 14.9549 14.8479C14.4873 15.343 13.8479 15.6404 13.168 15.6791L13.0164 15.6833H12.183C11.9583 15.6834 11.7402 15.7591 11.5639 15.8983L11.4805 15.9733L10.8989 16.5541C10.4202 17.0355 9.77584 17.3163 9.0973 17.339C8.41876 17.3618 7.75709 17.1249 7.24719 16.6766L7.11886 16.5558L6.53719 15.9741C6.37756 15.8155 6.1691 15.7154 5.94553 15.6899L5.83303 15.6833H4.99969C4.31868 15.6833 3.66345 15.4228 3.16839 14.9552C2.67332 14.4875 2.37592 13.8482 2.33719 13.1683L2.33303 13.0166V12.1833C2.33295 11.9586 2.25721 11.7405 2.11803 11.5641L2.04303 11.4808L1.46219 10.8991C0.98076 10.4204 0.700044 9.7761 0.677282 9.09756C0.654519 8.41902 0.891424 7.75734 1.33969 7.24745L1.46053 7.11912L2.04219 6.53745C2.20079 6.37782 2.3009 6.16936 2.32636 5.94578L2.33303 5.83328V4.99995L2.33719 4.84828C2.3744 4.19449 2.65088 3.57724 3.11393 3.11419C3.57698 2.65114 4.19423 2.37466 4.84803 2.33745L4.99969 2.33328H5.83303C6.05771 2.33321 6.27582 2.25747 6.45219 2.11828L6.53553 2.04328L7.11719 1.46245C7.36497 1.21319 7.65958 1.01537 7.98408 0.880364C8.30858 0.745359 8.65656 0.675832 9.00803 0.675781ZM12.0889 6.74412C11.9326 6.58789 11.7207 6.50013 11.4997 6.50013C11.2787 6.50013 11.0668 6.58789 10.9105 6.74412L8.16636 9.48745L7.08886 8.41078L7.01053 8.34162C6.84303 8.21211 6.63252 8.1512 6.42175 8.17128C6.21098 8.19136 6.01576 8.29091 5.87573 8.44972C5.7357 8.60852 5.66137 8.81467 5.66784 9.0263C5.6743 9.23792 5.76107 9.43915 5.91053 9.58912L7.57719 11.2558L7.65553 11.3249C7.81586 11.4493 8.01607 11.5109 8.21859 11.4982C8.42112 11.4855 8.61203 11.3993 8.75553 11.2558L12.0889 7.92245L12.158 7.84412C12.2824 7.68378 12.344 7.48357 12.3313 7.28105C12.3185 7.07853 12.2323 6.88761 12.0889 6.74412Z" fill="#F9502E"/>
</svg>
