<svg width="16" height="20" viewBox="0 0 16 20" fill="none" xmlns="http://www.w3.org/2000/svg">
<path d="M8.16699 5C8.16699 5.44313 8.16524 5.87604 8.21289 6.23047C8.26441 6.61367 8.38972 7.05085 8.75293 7.41406C9.11614 7.77728 9.55332 7.90258 9.93652 7.9541C10.291 8.00175 10.7239 8 11.167 8H16V14C16 16.8284 15.9998 18.2424 15.1211 19.1211C14.2424 19.9998 12.8284 20 10 20H6C3.17157 20 1.75759 19.9998 0.878906 19.1211C0.00022663 18.2424 0 16.8284 0 14V6C0 3.17157 0.000226655 1.75759 0.878906 0.878906C1.75759 0.00022662 3.17157 0 6 0H8.16699V5ZM4.5 14C3.94772 14 3.5 14.4477 3.5 15C3.5 15.5523 3.94772 16 4.5 16H9.16699L9.26855 15.9951C9.77299 15.9441 10.167 15.5179 10.167 15C10.167 14.4821 9.77299 14.0559 9.26855 14.0049L9.16699 14H4.5ZM4.5 10C3.94772 10 3.5 10.4477 3.5 11C3.5 11.5523 3.94772 12 4.5 12H11.5L11.6025 11.9951C12.1067 11.9438 12.5 11.5177 12.5 11C12.5 10.4823 12.1067 10.0562 11.6025 10.0049L11.5 10H4.5ZM10.167 0.0126953C10.4883 0.0277642 10.7196 0.0625458 10.9365 0.152344C11.3041 0.304585 11.5938 0.593814 12.1719 1.17188L14.8281 3.82812C15.4062 4.40619 15.6954 4.69593 15.8477 5.06348C15.9523 5.31627 15.983 5.58856 15.9932 6H11.167C10.6675 6 10.3933 5.9982 10.2031 5.97266C10.2005 5.9723 10.1978 5.97106 10.1953 5.9707C10.195 5.96854 10.1946 5.96612 10.1943 5.96387C10.1688 5.77368 10.167 5.49949 10.167 5V0.0126953Z" fill="#FF4F64"/>
</svg>
