<svg width="30" height="30" viewBox="0 0 30 30" fill="none" xmlns="http://www.w3.org/2000/svg">
<path d="M10.7297 5.11256C12.6297 1.70419 13.5797 0 15 0C16.4203 0 17.3703 1.70419 19.2703 5.11256L19.7618 5.99435C20.3017 6.9629 20.5717 7.44718 20.9926 7.76671C21.4135 8.08624 21.9377 8.20485 22.9862 8.44207L23.9407 8.65804C27.6302 9.49283 29.475 9.91023 29.9139 11.3216C30.3528 12.733 29.0951 14.2036 26.5799 17.1449L25.9291 17.9058C25.2144 18.7417 24.857 19.1596 24.6962 19.6766C24.5354 20.1936 24.5895 20.7512 24.6975 21.8663L24.7959 22.8816C25.1762 26.8059 25.3663 28.7681 24.2173 29.6403C23.0682 30.5126 21.341 29.7173 17.8865 28.1268L16.9928 27.7153C16.0111 27.2633 15.5203 27.0373 15 27.0373C14.4797 27.0373 13.9889 27.2633 13.0072 27.7153L12.1135 28.1268C8.65901 29.7173 6.93176 30.5126 5.78272 29.6403C4.63368 28.7681 4.82382 26.8059 5.20409 22.8816L5.30248 21.8663C5.41054 20.7512 5.46457 20.1936 5.30379 19.6766C5.14302 19.1596 4.78564 18.7417 4.07088 17.9058L3.42015 17.1449C0.904873 14.2036 -0.352763 12.733 0.0861315 11.3216C0.525026 9.91023 2.36979 9.49283 6.0593 8.65804L7.01383 8.44207C8.06228 8.20485 8.5865 8.08624 9.00741 7.76671C9.42833 7.44718 9.69829 6.9629 10.2382 5.99435L10.7297 5.11256Z" fill="#D9D9D9"/>
</svg>
