<svg width="22" height="19" viewBox="0 0 22 19" fill="none" xmlns="http://www.w3.org/2000/svg">
<path d="M14.7736 9.97294L13.6506 8.84989C13.8211 7.96014 13.5871 7.20116 12.9486 6.57296C12.3102 5.94476 11.5441 5.70374 10.6506 5.84989L9.52751 4.72684C9.75956 4.61914 9.99834 4.54157 10.2438 4.49414C10.4894 4.44671 10.7416 4.42299 11.0006 4.42299C12.1352 4.42299 13.0983 4.81882 13.89 5.61049C14.6816 6.40216 15.0775 7.36529 15.0775 8.49989C15.0775 8.75886 15.0553 9.0111 15.0111 9.25662C14.9669 9.50212 14.8877 9.74089 14.7736 9.97294ZM17.9544 13.0845L16.8506 12.0499C17.4839 11.5666 18.0506 11.0291 18.5506 10.4374C19.0506 9.84572 19.4672 9.19989 19.8006 8.49989C18.9672 6.81656 17.7631 5.47906 16.1881 4.48739C14.6131 3.49572 12.8839 2.99989 11.0006 2.99989C10.5172 2.99989 10.0464 3.03322 9.58806 3.09989C9.12973 3.16656 8.66723 3.26656 8.20056 3.39989L7.03521 2.23454C7.6711 1.98326 8.31949 1.798 8.98039 1.67877C9.64127 1.55953 10.3147 1.49991 11.0006 1.49991C13.1493 1.49991 15.123 2.05825 16.9217 3.17491C18.7204 4.29158 20.1037 5.80247 21.0717 7.70759C21.1384 7.83451 21.1867 7.96239 21.2169 8.09124C21.247 8.22009 21.2621 8.35631 21.2621 8.49989C21.2621 8.64347 21.2496 8.77969 21.2246 8.90854C21.1996 9.03739 21.1537 9.16527 21.0871 9.29219C20.7332 10.0448 20.289 10.7396 19.7544 11.3768C19.2198 12.014 18.6198 12.5832 17.9544 13.0845ZM11.0006 15.4999C8.89545 15.4999 6.96597 14.9374 5.21214 13.8124C3.45829 12.6874 2.06405 11.2056 1.02944 9.36719C0.946104 9.24027 0.885212 9.10246 0.846762 8.95374C0.808296 8.80502 0.789062 8.65374 0.789062 8.49989C0.789062 8.34604 0.805729 8.19732 0.839063 8.05374C0.872396 7.91016 0.930729 7.76977 1.01406 7.63259C1.38586 6.95311 1.80702 6.30599 2.27754 5.69124C2.74805 5.07649 3.28908 4.52553 3.90061 4.03837L1.64291 1.76526C1.50445 1.61655 1.43618 1.43995 1.43811 1.23546C1.44003 1.03098 1.51342 0.856306 1.65829 0.71144C1.80315 0.566573 1.9788 0.494141 2.18521 0.494141C2.39161 0.494141 2.56725 0.566573 2.71211 0.71144L19.289 17.2883C19.4275 17.4268 19.5009 17.5983 19.5092 17.8027C19.5175 18.0072 19.4441 18.187 19.289 18.3422C19.1441 18.487 18.9685 18.5595 18.7621 18.5595C18.5557 18.5595 18.3801 18.487 18.2352 18.3422L14.716 14.8537C14.1262 15.0819 13.5201 15.2467 12.8977 15.3479C12.2753 15.4492 11.6429 15.4999 11.0006 15.4999ZM4.95444 5.09216C4.36854 5.54473 3.84193 6.0566 3.37461 6.62777C2.9073 7.19892 2.51595 7.82296 2.20056 8.49989C3.0339 10.1832 4.23806 11.5207 5.81306 12.5124C7.38806 13.5041 9.11723 13.9999 11.0006 13.9999C11.4301 13.9999 11.8528 13.971 12.2689 13.9133C12.6849 13.8557 13.098 13.7666 13.5083 13.646L12.2429 12.3499C12.0403 12.4383 11.8381 12.4982 11.6361 12.5297C11.4342 12.5611 11.2224 12.5768 11.0006 12.5768C9.86596 12.5768 8.90283 12.181 8.11116 11.3893C7.3195 10.5976 6.92366 9.63449 6.92366 8.49989C6.92366 8.27809 6.94097 8.06623 6.97559 7.86432C7.0102 7.66238 7.06854 7.46013 7.15059 7.25757L4.95444 5.09216Z" fill="#ABABAB"/>
</svg>
