<svg width="112" height="112" viewBox="0 0 112 112" fill="none" xmlns="http://www.w3.org/2000/svg">
<g filter="url(#filter0_dd_1_12161)">
<rect x="28" y="12" width="56" height="57.6311" rx="10.8738" fill="white"/>
<rect x="28.5764" y="12.5764" width="54.8472" height="56.4783" rx="10.2974" stroke="#E6E6E6" stroke-width="1.15279"/>
<path d="M48.373 50.9678C50.2612 50.968 51.7917 52.4832 51.792 54.3526C51.792 56.2222 50.2614 57.7382 48.373 57.7383C46.4845 57.7383 44.9531 56.2223 44.9531 54.3526C44.9534 52.4831 46.4847 50.9678 48.373 50.9678ZM62.8105 50.9678C64.6987 50.968 66.2292 52.4832 66.2295 54.3526C66.2295 56.2222 64.6989 57.7382 62.8105 57.7383C60.922 57.7383 59.3906 56.2223 59.3906 54.3526C59.3909 52.4831 60.9222 50.9678 62.8105 50.9678ZM54.4307 23.8926C54.8688 23.8895 55.301 23.9938 55.6885 24.1964C56.076 24.399 56.407 24.6937 56.6514 25.0538C56.8956 25.4138 57.0458 25.8282 57.0889 26.2598C57.1319 26.6915 57.0669 27.127 56.8984 27.5274C56.73 27.9278 56.4639 28.281 56.124 28.5548C57.1351 29.5361 57.7485 30.8499 57.8486 32.2481C58.7878 33.1534 59.4805 34.28 59.8623 35.5216C61.8685 35.7849 66.7012 37.0715 66.7012 43.4434C66.7013 43.7185 66.8115 43.9823 67.0078 44.1768C67.2045 44.3715 67.4719 44.4815 67.75 44.4815C68.028 44.4814 68.2946 44.3714 68.4912 44.1768C68.6877 43.9822 68.7977 43.7185 68.7979 43.4434C68.7979 34.6262 61.1915 33.5349 59.3906 33.3995V33.0382C59.3907 31.8072 59.8855 30.6264 60.7646 29.7559C61.6438 28.8857 62.8359 28.3967 64.0791 28.3966C66.2564 28.3965 68.3452 29.2511 69.8877 30.7725C71.43 32.2939 72.3004 34.3582 72.3086 36.5137V41.7803C72.3086 43.8084 71.4991 45.7544 70.0557 47.1934C68.6122 48.6324 66.6519 49.4481 64.6035 49.462H55.6445V49.3936C55.5194 49.4177 55.3921 49.4308 55.2646 49.4317H52.9854C52.4815 49.4317 51.9979 49.2336 51.6416 48.8809C51.2854 48.5283 51.086 48.0496 51.0859 47.5508C51.0859 47.0521 51.2855 46.5735 51.6416 46.2208C51.9979 45.8681 52.4815 45.67 52.9854 45.67H55.2646C55.3921 45.6709 55.5195 45.6831 55.6445 45.7071V42.3223C55.6425 42.0138 55.5181 41.7183 55.2979 41.5001C55.0774 41.2818 54.7786 41.1583 54.4668 41.1563H45.4248C45.113 41.1583 44.8142 41.2818 44.5938 41.5001C44.3735 41.7183 44.2491 42.0138 44.2471 42.3223V43.8262C44.483 44.0014 44.6738 44.2292 44.8057 44.4903C44.9375 44.7514 45.0068 45.0392 45.0068 45.3311V47.588C45.0068 48.0867 44.8064 48.5653 44.4502 48.918C44.094 49.2706 43.6111 49.4687 43.1074 49.4688C42.6036 49.4688 42.1199 49.2708 41.7637 48.918C41.4075 48.5653 41.207 48.0867 41.207 47.588V45.3311C41.2076 44.8595 41.388 44.4054 41.7119 44.0596C42.0359 43.7138 42.48 43.5019 42.9551 43.4659C41.9728 42.7858 41.1652 41.8862 40.5977 40.8409C40.0303 39.7958 39.7185 38.6334 39.6875 37.4473C39.6998 36.4745 39.9076 35.5136 40.2988 34.6212C40.6902 33.7286 41.2572 32.9214 41.9668 32.2481C42.0669 30.8497 42.6812 29.5361 43.6924 28.5548C43.3524 28.281 43.0855 27.9279 42.917 27.5274C42.7486 27.127 42.6835 26.6914 42.7266 26.2598C42.7696 25.8283 42.9198 25.4138 43.1641 25.0538C43.4085 24.6937 43.7395 24.399 44.127 24.1964C44.5144 23.9937 44.9466 23.8895 45.3848 23.8926C45.8228 23.8958 46.2533 24.0059 46.6377 24.2139C47.0221 24.4221 47.3488 24.7215 47.5879 25.085C47.827 25.4486 47.9711 25.8656 48.0078 26.2979C49.261 26.0412 50.5544 26.0412 51.8076 26.2979C51.8444 25.8656 51.9884 25.4486 52.2275 25.085C52.4666 24.7215 52.7933 24.4221 53.1777 24.2139C53.5621 24.0059 53.9926 23.8958 54.4307 23.8926ZM46.8984 35.1671C46.4955 35.1671 46.1092 35.3264 45.8242 35.6085C45.5393 35.8906 45.379 36.273 45.3789 36.6719C45.3789 37.071 45.5392 37.4542 45.8242 37.7364C46.1091 38.0184 46.4956 38.1768 46.8984 38.1768H48.3271C48.6655 38.177 48.9947 38.0652 49.2617 37.8594C49.5286 37.6537 49.7188 37.3657 49.8018 37.0411C49.8584 36.819 49.863 36.5865 49.8154 36.3624C49.7678 36.1383 49.6685 35.9278 49.5264 35.7471C49.3843 35.5668 49.2027 35.4208 48.9951 35.3204C48.7872 35.2199 48.5585 35.167 48.3271 35.1671H46.8984ZM46.168 31.6661C45.9699 31.6275 45.7644 31.6475 45.5781 31.7247C45.3919 31.8019 45.2333 31.9328 45.1221 32.0997C45.0108 32.2666 44.9516 32.4622 44.9531 32.6622C44.9551 32.9269 45.0629 33.18 45.252 33.3673C45.441 33.5544 45.6965 33.6611 45.9639 33.6632C46.1658 33.6646 46.3637 33.6062 46.5322 33.4962C46.7008 33.386 46.8331 33.2285 46.9111 33.044C46.9891 32.8596 47.0097 32.6562 46.9707 32.46C46.9317 32.2638 46.8343 32.0829 46.6914 31.9415C46.5486 31.8002 46.366 31.7047 46.168 31.6661ZM49.8174 31.6661C49.6193 31.7047 49.4368 31.8001 49.2939 31.9415C49.1511 32.0829 49.0547 32.2638 49.0156 32.46C48.9766 32.6563 48.9972 32.8595 49.0752 33.044C49.1532 33.2285 49.2846 33.386 49.4531 33.4962C49.6216 33.6063 49.8196 33.6646 50.0215 33.6632C50.2889 33.6612 50.5453 33.5545 50.7344 33.3673C50.9233 33.1801 51.0302 32.9268 51.0322 32.6622C51.0337 32.4623 50.9754 32.2665 50.8643 32.0997C50.753 31.9327 50.5936 31.8019 50.4072 31.7247C50.2209 31.6475 50.0155 31.6274 49.8174 31.6661Z" fill="#F9502E"/>
</g>
<defs>
<filter id="filter0_dd_1_12161" x="0" y="0" width="112" height="113.631" filterUnits="userSpaceOnUse" color-interpolation-filters="sRGB">
<feFlood flood-opacity="0" result="BackgroundImageFix"/>
<feColorMatrix in="SourceAlpha" type="matrix" values="0 0 0 0 0 0 0 0 0 0 0 0 0 0 0 0 0 0 127 0" result="hardAlpha"/>
<feMorphology radius="4" operator="erode" in="SourceAlpha" result="effect1_dropShadow_1_12161"/>
<feOffset dy="4"/>
<feGaussianBlur stdDeviation="2"/>
<feComposite in2="hardAlpha" operator="out"/>
<feColorMatrix type="matrix" values="0 0 0 0 0.0470588 0 0 0 0 0.0470588 0 0 0 0 0.0509804 0 0 0 0.05 0"/>
<feBlend mode="normal" in2="BackgroundImageFix" result="effect1_dropShadow_1_12161"/>
<feColorMatrix in="SourceAlpha" type="matrix" values="0 0 0 0 0 0 0 0 0 0 0 0 0 0 0 0 0 0 127 0" result="hardAlpha"/>
<feMorphology radius="4" operator="erode" in="SourceAlpha" result="effect2_dropShadow_1_12161"/>
<feOffset dy="16"/>
<feGaussianBlur stdDeviation="16"/>
<feComposite in2="hardAlpha" operator="out"/>
<feColorMatrix type="matrix" values="0 0 0 0 0.0470588 0 0 0 0 0.0470588 0 0 0 0 0.0509804 0 0 0 0.1 0"/>
<feBlend mode="normal" in2="effect1_dropShadow_1_12161" result="effect2_dropShadow_1_12161"/>
<feBlend mode="normal" in="SourceGraphic" in2="effect2_dropShadow_1_12161" result="shape"/>
</filter>
</defs>
</svg>
