<svg width="1920" height="180" viewBox="0 0 1920 180" fill="none" xmlns="http://www.w3.org/2000/svg">
<g clip-path="url(#clip0_1_9367)">
<rect width="1920" height="180" fill="#F9502E"/>
<g opacity="0.2">
<rect x="1337.09" y="97.0391" width="50.948" height="138.288" rx="25.474" transform="rotate(15.6745 1337.09 97.0391)" fill="#FEEEEA"/>
<rect x="1251.83" y="73.3789" width="50.948" height="138.288" rx="25.474" transform="rotate(15.6745 1251.83 73.3789)" fill="#FEEEEA"/>
<rect opacity="0.8" x="1279.32" y="70.0195" width="50.948" height="175.256" rx="25.474" transform="rotate(61.1545 1279.32 70.0195)" fill="#FEEEEA"/>
<rect opacity="0.8" x="1384.05" y="155.199" width="50.248" height="98.9833" rx="25.124" transform="rotate(61.1545 1384.05 155.199)" fill="#FEEEEA"/>
<rect opacity="0.8" x="1364.58" y="93.6797" width="51.5351" height="174.623" rx="25.7676" transform="rotate(61.1545 1364.58 93.6797)" fill="#FEEEEA"/>
</g>
<g opacity="0.2">
<rect x="312.283" y="42.4805" width="27.3446" height="74.221" rx="13.6723" transform="rotate(-10.4621 312.283 42.4805)" fill="#FEEEEA"/>
<rect x="265.607" y="51.2383" width="27.3446" height="74.221" rx="13.6723" transform="rotate(-10.4621 265.607 51.2383)" fill="#FEEEEA"/>
<rect opacity="0.8" x="278.059" y="43.1211" width="27.3446" height="94.0628" rx="13.6723" transform="rotate(35.0178 278.059 43.1211)" fill="#FEEEEA"/>
<rect opacity="0.8" x="348.658" y="59.4023" width="26.9689" height="53.1258" rx="13.4844" transform="rotate(35.0178 348.658 59.4023)" fill="#FEEEEA"/>
<rect opacity="0.8" x="324.734" y="34.3633" width="27.6597" height="93.7229" rx="13.8298" transform="rotate(35.0178 324.734 34.3633)" fill="#FEEEEA"/>
</g>
</g>
<defs>
<clipPath id="clip0_1_9367">
<rect width="1920" height="180" fill="white"/>
</clipPath>
</defs>
</svg>
