<svg width="162" height="64" viewBox="0 0 162 64" fill="none" xmlns="http://www.w3.org/2000/svg">
<path d="M13.4902 45.4356C15.9492 45.4356 17.9434 47.4093 17.9434 49.8438C17.9431 52.2782 15.9491 54.252 13.4902 54.252C11.0315 54.2519 9.03832 52.2781 9.03809 49.8438C9.03809 47.4094 11.0314 45.4358 13.4902 45.4356ZM32.29 45.4356C34.7491 45.4356 36.7432 47.4093 36.7432 49.8438C36.7429 52.2782 34.7489 54.252 32.29 54.252C29.8313 54.2519 27.8381 52.2781 27.8379 49.8438C27.8379 47.4094 29.8312 45.4358 32.29 45.4356ZM21.3789 10.1827C21.9495 10.1786 22.5121 10.3144 23.0166 10.5782C23.5211 10.842 23.9523 11.2255 24.2705 11.6944C24.5886 12.1632 24.7847 12.7028 24.8408 13.2647C24.8969 13.8269 24.8112 14.3946 24.5918 14.9161C24.3724 15.4375 24.0255 15.8966 23.583 16.253C24.8997 17.5308 25.6988 19.2417 25.8291 21.0626C27.052 22.2414 27.954 23.7078 28.4512 25.3243C31.0634 25.6672 37.3555 27.3428 37.3555 35.6397C37.3556 35.9981 37.5 36.3414 37.7559 36.5948C38.0119 36.8483 38.3596 36.9913 38.7217 36.9913C39.0837 36.9912 39.4306 36.8482 39.6865 36.5948C39.9424 36.3414 40.0868 35.9981 40.0869 35.6397C40.0869 24.1595 30.1835 22.7381 27.8379 22.5616V22.0919C27.8379 20.4889 28.4811 18.951 29.626 17.8175C30.7708 16.6842 32.3235 16.0479 33.9424 16.0479C36.7775 16.0479 39.4975 17.1596 41.5059 19.1407C43.5142 21.1218 44.6477 23.8105 44.6582 26.6173V33.4747C44.6582 36.1154 43.6031 38.6489 41.7236 40.5226C39.8441 42.3963 37.2922 43.4576 34.625 43.4757H22.96V43.3878C22.7969 43.4191 22.6309 43.4354 22.4648 43.4366H19.4971C18.8412 43.4366 18.2119 43.1789 17.748 42.7198C17.2843 42.2607 17.0236 41.6377 17.0234 40.9884C17.0234 40.3389 17.2842 39.7152 17.748 39.2559C18.2119 38.7969 18.8412 38.5392 19.4971 38.5392H22.4648C22.6309 38.5404 22.7969 38.5566 22.96 38.588V34.1798C22.9574 33.7779 22.7949 33.3927 22.5078 33.1085C22.2208 32.8244 21.8317 32.6638 21.4258 32.6612H9.65137C9.24571 32.6639 8.85723 32.8246 8.57031 33.1085C8.28326 33.3927 8.12076 33.7779 8.11816 34.1798V36.1388C8.42537 36.3669 8.67495 36.663 8.84668 37.003C9.0183 37.3429 9.10736 37.7177 9.10742 38.0977V41.0372C9.10734 41.6866 8.84663 42.3094 8.38281 42.7686C7.91895 43.2278 7.28973 43.4854 6.63379 43.4854C5.97786 43.4854 5.34858 43.2279 4.88477 42.7686C4.42101 42.3094 4.16023 41.6866 4.16016 41.0372V38.0977C4.16094 37.4838 4.39581 36.8927 4.81738 36.4425C5.23925 35.9921 5.81793 35.7159 6.43652 35.669C5.15759 34.7836 4.10612 33.613 3.36719 32.252C2.62827 30.891 2.222 29.3768 2.18164 27.8321C2.19768 26.5652 2.46888 25.3136 2.97852 24.1515C3.48814 22.9895 4.22661 21.9391 5.15039 21.0626C5.28074 19.2418 6.07884 17.5308 7.39551 16.253C6.95316 15.8967 6.60706 15.4373 6.3877 14.9161C6.16828 14.3946 6.08257 13.8269 6.13867 13.2647C6.1948 12.7027 6.39081 12.1632 6.70898 11.6944C7.02716 11.2256 7.45752 10.842 7.96191 10.5782C8.46632 10.3145 9.02919 10.1787 9.59961 10.1827C10.1701 10.1868 10.7309 10.3307 11.2314 10.6017C11.732 10.8727 12.1574 11.2621 12.4688 11.7354C12.7801 12.2089 12.9678 12.7516 13.0156 13.3145C14.6474 12.9803 16.3312 12.9803 17.9629 13.3145C18.0107 12.7516 18.1984 12.2089 18.5098 11.7354C18.8211 11.262 19.2465 10.8727 19.7471 10.6017C20.2477 10.3306 20.8083 10.1868 21.3789 10.1827ZM11.5713 24.8634C11.0465 24.8634 10.543 25.0702 10.1719 25.4376C9.8008 25.805 9.59277 26.3037 9.59277 26.8233C9.59286 27.3427 9.80098 27.8408 10.1719 28.2081C10.543 28.5755 11.0465 28.7823 11.5713 28.7823H13.4316C13.8721 28.7825 14.2999 28.637 14.6475 28.3692C14.9952 28.1013 15.2426 27.7258 15.3506 27.3028C15.4244 27.0137 15.4311 26.7118 15.3691 26.42C15.3072 26.1282 15.1783 25.8545 14.9932 25.6192C14.8081 25.384 14.5714 25.1934 14.3008 25.0626C14.0302 24.9318 13.7328 24.8633 13.4316 24.8634H11.5713ZM10.6201 20.3038C10.3622 20.2536 10.095 20.2805 9.85254 20.3809C9.60987 20.4815 9.40274 20.6519 9.25781 20.8692C9.11299 21.0865 9.03616 21.3413 9.03809 21.6017C9.04068 21.9464 9.18053 22.2768 9.42676 22.5206C9.67296 22.7642 10.0064 22.9018 10.3545 22.9044C10.6175 22.9063 10.8752 22.831 11.0947 22.6876C11.3143 22.5441 11.4853 22.339 11.5869 22.0987C11.6885 21.8585 11.7159 21.5935 11.665 21.338C11.6142 21.0827 11.4876 20.8482 11.3018 20.6642C11.1157 20.48 10.8782 20.3541 10.6201 20.3038ZM15.3721 20.3038C15.114 20.3541 14.8764 20.48 14.6904 20.6642C14.5046 20.8482 14.378 21.0827 14.3271 21.338C14.2763 21.5935 14.3037 21.8585 14.4053 22.0987C14.5068 22.339 14.6779 22.5441 14.8975 22.6876C15.117 22.831 15.3747 22.9063 15.6377 22.9044C15.9858 22.9018 16.3192 22.7642 16.5654 22.5206C16.8117 22.2768 16.9515 21.9464 16.9541 21.6017C16.956 21.3413 16.8792 21.0865 16.7344 20.8692C16.5894 20.6519 16.3823 20.4815 16.1396 20.3809C15.8972 20.2805 15.63 20.2536 15.3721 20.3038Z" fill="#F9502E"/>
<path d="M113.943 32.8454C112.953 32.8113 112.133 32.7088 111.484 32.538C110.87 32.3331 110.374 32.0599 109.999 31.7183C109.623 31.3426 109.35 30.8816 109.179 30.3351C109.042 29.7545 108.957 29.0714 108.923 28.2858C108.923 27.9785 108.906 27.4832 108.872 26.8001C108.872 26.0829 108.872 25.2974 108.872 24.4435C108.872 23.5555 108.854 22.6333 108.82 21.677C108.82 20.7207 108.82 19.7985 108.82 18.9105C108.82 18.0225 108.82 17.237 108.82 16.5539C108.82 15.8708 108.82 15.3585 108.82 15.017C108.82 13.7533 109.162 12.814 109.845 12.1992C110.562 11.5503 111.433 11.2259 112.458 11.2259C113.551 11.2259 114.439 11.5503 115.122 12.1992C115.839 12.814 116.198 13.7703 116.198 15.0682V17.0662C116.847 17.0662 117.615 17.0662 118.503 17.0662C119.391 17.0662 120.296 17.0662 121.218 17.0662C122.14 17.0662 123.046 17.0662 123.934 17.0662C124.822 17.0662 125.59 17.0662 126.239 17.0662V14.7608C126.239 13.5654 126.598 12.6774 127.315 12.0968C128.032 11.5162 128.92 11.2259 129.979 11.2259C131.003 11.2259 131.874 11.4991 132.592 12.0455C133.309 12.592 133.667 13.4288 133.667 14.5559C133.667 14.9999 133.667 15.8708 133.667 17.1687C133.702 18.4324 133.719 19.7985 133.719 21.2672C133.719 22.7358 133.719 24.1361 133.719 25.4681C133.719 26.766 133.702 27.6711 133.667 28.1834C133.633 28.9689 133.531 29.652 133.36 30.2326C133.189 30.7791 132.899 31.2402 132.489 31.6159C132.079 31.9574 131.516 32.2306 130.799 32.4356C130.081 32.6405 129.142 32.76 127.981 32.7942C127.093 32.8625 126.051 32.9137 124.856 32.9479C123.694 32.9479 122.482 32.965 121.218 32.9991C119.989 32.9991 118.742 32.9991 117.478 32.9991C116.215 32.965 115.036 32.9137 113.943 32.8454ZM116.198 25.7755C116.232 26.322 116.334 26.6464 116.505 26.7489C116.676 26.8514 117.051 26.9197 117.632 26.9538C118.725 26.988 119.886 27.0051 121.116 27.0051C122.345 27.0051 123.455 26.9709 124.446 26.9026C124.822 26.8684 125.129 26.8514 125.368 26.8514C125.607 26.8172 125.795 26.7831 125.932 26.7489C126.068 26.6806 126.154 26.5781 126.188 26.4415C126.256 26.2707 126.29 26.0487 126.29 25.7755V22.6504C125.641 22.6504 124.873 22.6504 123.985 22.6504C123.097 22.6163 122.175 22.5992 121.218 22.5992C120.296 22.5992 119.391 22.6163 118.503 22.6504C117.615 22.6504 116.847 22.6504 116.198 22.6504V25.7755ZM122.704 44.1675C122.704 42.6306 122.977 41.2473 123.524 40.0178C124.104 38.7882 124.89 37.7465 125.88 36.8927C126.905 36.0388 128.134 35.3899 129.569 34.9459C131.003 34.5019 132.592 34.2799 134.333 34.2799C135.939 34.2799 137.407 34.5019 138.739 34.9459C140.105 35.3899 141.267 36.0388 142.223 36.8927C143.214 37.7465 143.982 38.7882 144.528 40.0178C145.075 41.2132 145.348 42.5964 145.348 44.1675C145.348 45.5678 145.092 46.8657 144.58 48.0611C144.102 49.2565 143.384 50.2982 142.428 51.1862C141.472 52.0742 140.31 52.7744 138.944 53.2867C137.612 53.799 136.075 54.0551 134.333 54.0551C132.592 54.0551 131.003 53.799 129.569 53.2867C128.169 52.7744 126.956 52.0742 125.932 51.1862C124.907 50.2982 124.104 49.2565 123.524 48.0611C122.977 46.8657 122.704 45.5678 122.704 44.1675ZM130.286 44.065C130.286 45.0555 130.645 45.8752 131.362 46.5242C132.079 47.1389 133.019 47.4463 134.18 47.4463C135.375 47.4463 136.331 47.1389 137.049 46.5242C137.8 45.8752 138.176 45.0555 138.176 44.065C138.176 42.9721 137.817 42.1353 137.1 41.5547C136.383 40.9399 135.409 40.6326 134.18 40.6326C133.019 40.6326 132.079 40.9229 131.362 41.5035C130.645 42.05 130.286 42.9038 130.286 44.065ZM140.789 14.2997C140.72 12.8652 140.994 11.7894 141.608 11.0722C142.257 10.3208 143.214 9.94507 144.477 9.94507C145.638 9.94507 146.578 10.3037 147.295 11.0209C148.046 11.704 148.456 12.8652 148.524 14.5046C148.593 16.2465 148.627 17.8005 148.627 19.1667C148.661 20.4987 148.678 21.7624 148.678 22.9578C148.678 24.119 148.661 25.229 148.627 26.2878C148.627 27.3466 148.61 28.4395 148.576 29.5666C148.507 31.206 148.149 32.5039 147.5 33.4602C146.851 34.4165 145.878 34.8947 144.58 34.8947C143.282 34.8947 142.326 34.519 141.711 33.7676C141.13 32.982 140.891 31.7183 140.994 29.9765C141.028 29.0885 141.045 28.0126 141.045 26.7489C141.079 25.4852 141.079 24.1532 141.045 22.7529C141.045 21.3184 141.011 19.8668 140.942 18.3982C140.908 16.9296 140.857 15.5634 140.789 14.2997Z" fill="#F9502E"/>
<path d="M85.3087 53.7478C84.3183 53.7478 83.379 53.4062 82.491 52.7232C81.6372 52.0401 81.1761 51.0325 81.1078 49.7005C81.1078 49.2907 81.0907 48.7954 81.0566 48.2148C81.0566 47.6342 81.0395 47.0023 81.0053 46.3193C81.0053 45.6362 81.0053 44.9189 81.0053 44.1676C81.0053 43.4162 81.0053 42.6648 81.0053 41.9134C78.5121 41.8792 76.0871 41.828 73.7305 41.7597C71.408 41.6914 69.3075 41.5718 67.4291 41.4011C65.858 41.2645 64.765 40.8888 64.1503 40.274C63.5355 39.6251 63.2623 38.8054 63.3306 37.8149C63.3989 36.8244 63.7233 36.0218 64.304 35.407C64.9187 34.7581 66.0458 34.4678 67.6852 34.5361C70.4517 34.6386 73.3206 34.7239 76.2921 34.7922C79.2976 34.8264 82.2861 34.8435 85.2575 34.8435C88.2631 34.8435 91.2345 34.8264 94.1717 34.7922C97.109 34.7239 99.9096 34.6215 102.574 34.4849C104.316 34.4166 105.528 34.741 106.211 35.4583C106.928 36.1413 107.287 37.0123 107.287 38.071C107.287 39.0615 107.014 39.83 106.467 40.3764C105.955 40.8888 105.05 41.2132 103.752 41.3498C102.249 41.5206 100.251 41.6572 97.7579 41.7597C95.2988 41.828 92.6007 41.8792 89.6634 41.9134C89.6292 43.0063 89.5951 44.1334 89.5609 45.2946C89.5609 46.4217 89.5609 47.4464 89.5609 48.3685C89.5609 49.2907 89.4243 50.0762 89.1511 50.7252C88.912 51.4082 88.5875 51.9718 88.1777 52.4158C87.802 52.8598 87.358 53.1843 86.8457 53.3892C86.3334 53.6283 85.8211 53.7478 85.3087 53.7478ZM67.8901 24.4948C67.8901 23.1969 67.8901 22.1211 67.8901 21.2672C67.8901 20.4134 67.8901 19.679 67.8901 19.0643C67.9243 18.4153 67.9414 17.8347 67.9414 17.3224C67.9755 16.8101 68.0268 16.2295 68.0951 15.5805C68.1975 14.4535 68.5561 13.6167 69.1709 13.0702C69.7857 12.4896 70.7932 12.1822 72.1936 12.1481C74.3453 12.1139 76.5482 12.0797 78.8024 12.0456C81.0907 12.0114 83.362 11.9944 85.6161 11.9944C87.8703 11.9602 90.0732 11.9602 92.225 11.9944C94.3767 11.9944 96.4088 12.0456 98.3215 12.1481C99.7218 12.2164 100.729 12.5238 101.344 13.0702C101.959 13.6167 102.318 14.4535 102.42 15.5805C102.454 16.2295 102.488 16.8101 102.522 17.3224C102.557 17.8347 102.574 18.4153 102.574 19.0643C102.608 19.679 102.625 20.4134 102.625 21.2672C102.625 22.1211 102.625 23.1969 102.625 24.4948C102.625 25.7243 102.54 26.766 102.369 27.6199C102.232 28.4396 101.925 29.1227 101.447 29.6691C100.968 30.1814 100.285 30.5742 99.3973 30.8474C98.5093 31.1207 97.3139 31.3085 95.8111 31.411C94.5133 31.4793 92.9934 31.5305 91.2516 31.5647C89.5097 31.5988 87.6825 31.6159 85.7698 31.6159C83.8572 31.6159 81.9275 31.5988 79.9807 31.5647C78.0681 31.5305 76.3091 31.4964 74.7039 31.4622C73.2011 31.4281 72.0057 31.2744 71.1177 31.0011C70.2297 30.7279 69.5466 30.3181 69.0685 29.7716C68.5903 29.191 68.2658 28.4737 68.0951 27.6199C67.9584 26.766 67.8901 25.7243 67.8901 24.4948ZM75.626 19.8327C75.5919 20.4817 75.5748 21.0111 75.5748 21.4209C75.609 21.7966 75.6431 22.3089 75.6773 22.9578C75.7456 23.6751 75.8993 24.1532 76.1384 24.3923C76.4116 24.6314 76.941 24.768 77.7265 24.8022C78.717 24.8363 79.8612 24.8705 81.159 24.9046C82.491 24.9046 83.8401 24.9046 85.2063 24.9046C86.6066 24.9046 87.9728 24.9046 89.3048 24.9046C90.6368 24.8705 91.798 24.8363 92.7885 24.8022C93.574 24.768 94.0864 24.6314 94.3254 24.3923C94.5987 24.1532 94.7694 23.6751 94.8377 22.9578C94.8719 22.3089 94.889 21.7966 94.889 21.4209C94.9231 21.0111 94.9231 20.4817 94.889 19.8327C94.8548 19.457 94.7694 19.2009 94.6328 19.0643C94.5304 18.9277 94.2571 18.8423 93.8131 18.8081C92.9251 18.7398 91.6956 18.7057 90.1245 18.7057C88.5875 18.6715 86.9652 18.6544 85.2575 18.6544C83.584 18.6544 81.9616 18.6715 80.3906 18.7057C78.8195 18.7398 77.5899 18.774 76.7019 18.8081C76.2579 18.8423 75.9676 18.9277 75.831 19.0643C75.7285 19.2009 75.6602 19.457 75.626 19.8327Z" fill="#F9502E"/>
</svg>
