<svg width="784" height="307" viewBox="0 0 784 307" fill="none" xmlns="http://www.w3.org/2000/svg">
<g filter="url(#filter0_d_1_1610)">
<g filter="url(#filter1_d_1_1610)">
<rect x="6" y="6" width="764" height="287" rx="32" fill="white" shape-rendering="crispEdges"/>
<path d="M68.1797 53.7148V63.3672H71.8438V65.9102H68.1797V78.3789H65.1445V53.7148H68.1797ZM61.6445 56.2852C61.6445 63.5586 58.6367 69.9297 50.4062 73.9766L48.6836 71.625C54.6992 68.6309 57.9531 64.4199 58.582 58.8008H50.0234V56.2852H61.6445ZM93.7188 53.7148V68.3984H90.6836V62.3555H86.4727V59.8672H90.6836V53.7148H93.7188ZM85.3516 69.0273C90.6016 69.0273 93.8008 70.75 93.8008 73.7305C93.8008 76.7109 90.6016 78.4336 85.3516 78.4336C80.1289 78.4336 76.9297 76.7109 76.957 73.7305C76.9297 70.75 80.1289 69.0273 85.3516 69.0273ZM85.3516 71.3516C81.9062 71.3516 79.9648 72.1719 79.9648 73.7305C79.9648 75.2617 81.9062 76.082 85.3516 76.082C88.7969 76.082 90.7656 75.2617 90.7656 73.7305C90.7656 72.1719 88.7969 71.3516 85.3516 71.3516ZM82.0977 57.9531C82.0977 60.9609 84.0938 63.9961 87.9219 65.2812L86.3906 67.6875C83.6426 66.7578 81.6875 64.8711 80.6211 62.5469C79.5273 65.1855 77.4629 67.291 74.5234 68.3438L72.9375 65.9375C76.9023 64.5703 79.0078 61.2344 79.0078 57.9805V57.7891H73.8672V55.3281H87.2109V57.7891H82.0977V57.9531ZM117.781 53.7148V78.4609H114.719V53.7148H117.781ZM104.465 55.5195C108.184 55.5195 110.891 58.9102 110.918 64.2422C110.891 69.6289 108.184 72.9922 104.465 72.9922C100.719 72.9922 98.0117 69.6289 98.0117 64.2422C98.0117 58.9102 100.719 55.5195 104.465 55.5195ZM104.465 58.2539C102.359 58.2539 100.938 60.4688 100.938 64.2422C100.938 68.043 102.359 70.2578 104.465 70.2578C106.543 70.2578 107.965 68.043 107.965 64.2422C107.965 60.4688 106.543 58.2539 104.465 58.2539ZM130.25 59.6484C130.223 64.0508 132.438 68.5352 136.266 70.3672L134.406 72.8008C131.727 71.4473 129.799 68.8359 128.746 65.6914C127.666 69.0547 125.643 71.8438 122.812 73.2656L120.953 70.832C124.918 68.9453 127.188 64.2148 127.215 59.6484V55.7109H130.25V59.6484ZM140.777 53.7148V63.3945H144.578V65.9922H140.777V78.4336H137.742V53.7148H140.777Z" fill="black"/>
<path d="M53.9375 105.852C53.9375 107.492 54.8262 109.621 56.6328 110.832C58.3906 109.66 59.2891 107.57 59.2891 105.852V103.625H60.832V105.852C60.8125 107.98 62.082 110.188 64.3672 111.145L63.5078 112.316C61.8086 111.555 60.6367 110.129 60.0508 108.449C59.4844 110.139 58.3613 111.701 56.6133 112.512C54.8457 111.691 53.7031 110.061 53.1562 108.352C52.541 110.021 51.3594 111.535 49.6992 112.316L48.8789 111.145C51.0859 110.129 52.3945 107.785 52.4141 105.852V103.625H53.9375V105.852ZM64.582 115.969V117.238H48.7031V115.969H64.582ZM80.3242 102.219V119.621H78.8008V102.219H80.3242ZM75.0508 103.84V110.012H68.5664V114.113C71.4473 114.113 74.0156 113.986 77.1211 113.488L77.2773 114.777C74.0742 115.285 71.4375 115.402 68.4492 115.402H67.0039V108.762H73.5078V105.109H66.9648V103.84H75.0508ZM99.1523 111.047V112.297H91.9453V114.113H97.1016V119.348H85.4219V114.113H90.4414V112.297H83.2539V111.047H99.1523ZM86.9258 115.344V118.098H95.5977V115.344H86.9258ZM97.1016 102.648V106.711H86.8477V108.449H97.4727V109.68H85.3242V105.578H95.5586V103.84H85.2656V102.648H97.1016ZM103.41 116.691L101.887 122.004H100.441L101.516 116.691H103.41ZM111.32 118L111.301 116.711L116.125 111.633C117.805 109.855 118.605 108.898 118.605 107.59C118.605 106.145 117.375 105.188 115.793 105.188C114.113 105.188 113.039 106.262 113.039 107.844H111.379C111.359 105.344 113.293 103.664 115.852 103.664C118.41 103.664 120.246 105.383 120.246 107.59C120.246 109.172 119.504 110.402 117.004 112.98L113.762 116.32V116.438H120.5V118H111.32ZM127.688 118.195C124.543 118.195 122.746 115.559 122.746 110.93C122.746 106.34 124.582 103.664 127.688 103.664C130.793 103.664 132.629 106.34 132.629 110.93C132.629 115.559 130.812 118.195 127.688 118.195ZM127.688 116.633C129.719 116.633 130.91 114.582 130.91 110.93C130.91 107.277 129.719 105.188 127.688 105.188C125.656 105.188 124.445 107.277 124.445 110.93C124.445 114.582 125.637 116.633 127.688 116.633ZM144.094 103.547V104.816H142.316V110.363C143.127 110.314 143.908 110.246 144.66 110.148L144.738 111.32C141.359 111.848 137.395 111.887 134.582 111.887L134.387 110.598C135.08 110.598 135.832 110.598 136.633 110.578V104.816H134.875V103.547H144.094ZM148.742 102.219V112.941H147.199V109.719H144.27V108.449H147.199V106.613H144.27V105.344H147.199V102.219H148.742ZM142.98 113.312C146.613 113.312 148.801 114.445 148.801 116.418C148.801 118.41 146.613 119.543 142.98 119.543C139.348 119.543 137.16 118.41 137.16 116.418C137.16 114.445 139.348 113.312 142.98 113.312ZM142.98 114.504C140.305 114.504 138.664 115.227 138.684 116.418C138.664 117.629 140.305 118.332 142.98 118.332C145.656 118.332 147.277 117.629 147.277 116.418C147.277 115.227 145.656 114.504 142.98 114.504ZM138.117 110.559C139.006 110.539 139.924 110.51 140.832 110.461V104.816H138.117V110.559ZM166.477 102.219V119.582H165.012V110.48H162.453V118.684H161.047V102.609H162.453V109.211H165.012V102.219H166.477ZM158.781 104.348V105.617H153.801V113.977C156.193 113.967 157.854 113.879 159.777 113.488L159.914 114.777C157.824 115.207 156.047 115.285 153.391 115.285H152.277V104.348H158.781ZM182.98 103.938V115.227H174.953V103.938H182.98ZM176.457 105.168V113.977H181.477V105.168H176.457ZM188.254 102.219V119.621H186.711V102.219H188.254ZM199.992 103.801V111.789H191.965V103.801H199.992ZM193.469 105.051V110.559H198.508V105.051H193.469ZM204.797 102.219V107.512H207.414V108.801H204.797V114.953H203.273V102.219H204.797ZM205.598 117.922V119.211H193.938V113.742H195.441V117.922H205.598Z" fill="#999999"/>
</g>
<mask id="mask0_1_1610" style="mask-type:alpha" maskUnits="userSpaceOnUse" x="6" y="6" width="764" height="287">
<rect x="6" y="6" width="764" height="287" rx="32" fill="white"/>
</mask>
<g mask="url(#mask0_1_1610)">
<circle cx="750" cy="302" r="31" fill="#242945"/>
<path d="M368 146C368 128.327 382.327 114 400 114H467V277C467 285.837 459.837 293 451 293H400C382.327 293 368 278.673 368 261V146Z" fill="#FEEEEA"/>
<path d="M335 200C335 182.327 349.327 168 367 168H418V277C418 285.837 410.837 293 402 293H367C349.327 293 335 278.673 335 261V200Z" fill="#FEEEEA"/>
<path d="M467 63C467 51.9543 475.954 43 487 43H783C794.046 43 803 51.9543 803 63V277C803 285.837 795.837 293 787 293H483C474.163 293 467 285.837 467 277V63Z" fill="#F9502E"/>
<circle cx="407" cy="302" r="31" fill="#242945"/>
<path d="M550.986 185.914C554.265 185.914 556.923 188.546 556.923 191.792C556.923 195.037 554.265 197.668 550.986 197.669C547.708 197.669 545.05 195.038 545.05 191.792C545.05 188.546 547.708 185.914 550.986 185.914ZM576.053 185.914C579.331 185.914 581.989 188.546 581.989 191.792C581.989 195.037 579.331 197.668 576.053 197.669C572.774 197.669 570.116 195.038 570.116 191.792C570.116 188.546 572.774 185.914 576.053 185.914ZM561.503 138.91C562.264 138.904 563.014 139.085 563.687 139.437C564.359 139.789 564.933 140.3 565.357 140.925C565.782 141.551 566.043 142.271 566.118 143.02C566.193 143.77 566.079 144.526 565.786 145.221C565.494 145.917 565.032 146.529 564.441 147.005C566.197 148.708 567.263 150.99 567.437 153.418C569.067 154.989 570.269 156.944 570.932 159.099C574.414 159.556 582.805 161.79 582.805 172.852C582.805 173.33 582.997 173.789 583.339 174.127C583.68 174.465 584.143 174.655 584.626 174.655C585.109 174.655 585.572 174.465 585.913 174.127C586.254 173.789 586.446 173.33 586.446 172.852C586.446 157.545 573.241 155.651 570.114 155.416V154.789C570.114 152.651 570.972 150.602 572.498 149.09C574.025 147.579 576.095 146.73 578.254 146.73C582.034 146.73 585.66 148.213 588.338 150.854C591.016 153.496 592.527 157.08 592.541 160.823V169.966C592.541 173.487 591.135 176.865 588.629 179.363C586.123 181.861 582.72 183.277 579.164 183.301H563.61V183.184C563.393 183.226 563.172 183.248 562.95 183.25H558.993C558.118 183.25 557.28 182.905 556.661 182.293C556.043 181.68 555.695 180.85 555.695 179.984C555.695 179.118 556.043 178.288 556.661 177.675C557.28 177.063 558.118 176.718 558.993 176.718H562.95C563.172 176.72 563.393 176.742 563.61 176.784V170.906C563.607 170.37 563.39 169.857 563.008 169.478C562.625 169.099 562.107 168.885 561.565 168.881H545.866C545.325 168.885 544.807 169.1 544.425 169.478C544.042 169.857 543.825 170.37 543.821 170.906V173.518C544.231 173.822 544.564 174.217 544.793 174.671C545.022 175.124 545.141 175.624 545.141 176.13V180.049C545.141 180.915 544.793 181.746 544.175 182.358C543.556 182.97 542.717 183.314 541.843 183.314C540.968 183.314 540.129 182.97 539.511 182.358C538.892 181.746 538.545 180.915 538.545 180.049V176.13C538.546 175.312 538.858 174.523 539.421 173.922C539.983 173.322 540.754 172.954 541.579 172.891C539.874 171.71 538.472 170.15 537.486 168.336C536.501 166.521 535.96 164.503 535.906 162.443C535.928 160.754 536.288 159.085 536.968 157.536C537.647 155.986 538.632 154.586 539.864 153.418C540.038 150.99 541.103 148.708 542.858 147.005C542.268 146.529 541.806 145.917 541.514 145.221C541.221 144.526 541.107 143.77 541.182 143.02C541.256 142.271 541.518 141.551 541.942 140.925C542.367 140.3 542.941 139.789 543.613 139.437C544.286 139.085 545.037 138.904 545.798 138.91C546.558 138.915 547.306 139.107 547.974 139.468C548.641 139.83 549.207 140.35 549.622 140.981C550.037 141.612 550.288 142.335 550.352 143.086C552.527 142.64 554.773 142.64 556.948 143.086C557.012 142.335 557.263 141.612 557.678 140.981C558.093 140.35 558.66 139.83 559.327 139.468C559.995 139.107 560.742 138.915 561.503 138.91ZM548.426 158.485C547.726 158.485 547.055 158.761 546.561 159.251C546.066 159.74 545.787 160.405 545.787 161.097C545.787 161.79 546.066 162.455 546.561 162.945C547.055 163.435 547.726 163.71 548.426 163.71H550.906C551.494 163.71 552.065 163.516 552.528 163.159C552.992 162.802 553.321 162.301 553.465 161.737C553.563 161.352 553.572 160.949 553.489 160.56C553.407 160.171 553.235 159.805 552.988 159.492C552.741 159.178 552.425 158.924 552.064 158.75C551.704 158.575 551.308 158.485 550.906 158.485H548.426ZM547.158 152.406C546.814 152.339 546.457 152.374 546.134 152.508C545.81 152.643 545.534 152.869 545.341 153.159C545.148 153.448 545.046 153.788 545.049 154.135C545.052 154.595 545.238 155.035 545.566 155.36C545.895 155.685 546.339 155.869 546.803 155.873C547.153 155.875 547.497 155.775 547.79 155.584C548.083 155.392 548.312 155.119 548.447 154.798C548.583 154.478 548.618 154.125 548.551 153.785C548.483 153.444 548.314 153.131 548.066 152.885C547.818 152.64 547.502 152.473 547.158 152.406ZM554.518 152.508C554.194 152.374 553.837 152.339 553.493 152.406C553.149 152.473 552.833 152.64 552.585 152.885C552.337 153.131 552.168 153.444 552.101 153.785C552.033 154.125 552.069 154.478 552.204 154.798C552.34 155.119 552.568 155.392 552.86 155.584C553.153 155.775 553.497 155.875 553.848 155.873C554.312 155.869 554.757 155.685 555.085 155.36C555.413 155.035 555.599 154.595 555.603 154.135C555.605 153.788 555.504 153.448 555.311 153.159C555.117 152.869 554.841 152.643 554.518 152.508Z" fill="#F9502E"/>
<path d="M678.929 169.057C677.691 169.014 676.667 168.886 675.855 168.672C675.087 168.416 674.468 168.075 673.998 167.648C673.529 167.178 673.187 166.602 672.974 165.919C672.803 165.193 672.696 164.339 672.653 163.357C672.653 162.973 672.632 162.354 672.589 161.5C672.589 160.603 672.589 159.622 672.589 158.554C672.589 157.444 672.568 156.291 672.525 155.096C672.525 153.901 672.525 152.748 672.525 151.638C672.525 150.528 672.525 149.546 672.525 148.692C672.525 147.838 672.525 147.198 672.525 146.771C672.525 145.191 672.952 144.017 673.806 143.249C674.703 142.438 675.791 142.032 677.072 142.032C678.438 142.032 679.548 142.438 680.402 143.249C681.299 144.017 681.747 145.213 681.747 146.835V149.333C682.558 149.333 683.519 149.333 684.629 149.333C685.739 149.333 686.87 149.333 688.023 149.333C689.176 149.333 690.307 149.333 691.417 149.333C692.527 149.333 693.487 149.333 694.299 149.333V146.451C694.299 144.957 694.747 143.847 695.643 143.121C696.54 142.395 697.65 142.032 698.973 142.032C700.254 142.032 701.343 142.374 702.239 143.057C703.136 143.74 703.584 144.786 703.584 146.195C703.584 146.75 703.584 147.838 703.584 149.461C703.627 151.04 703.648 152.748 703.648 154.584C703.648 156.42 703.648 158.17 703.648 159.835C703.648 161.457 703.627 162.589 703.584 163.229C703.542 164.211 703.414 165.065 703.2 165.791C702.987 166.474 702.624 167.05 702.111 167.52C701.599 167.947 700.895 168.288 699.998 168.544C699.102 168.8 697.928 168.95 696.476 168.993C695.366 169.078 694.064 169.142 692.57 169.185C691.118 169.185 689.602 169.206 688.023 169.249C686.486 169.249 684.928 169.249 683.348 169.249C681.768 169.206 680.295 169.142 678.929 169.057ZM681.747 160.219C681.79 160.902 681.918 161.308 682.131 161.436C682.345 161.564 682.814 161.649 683.54 161.692C684.906 161.735 686.358 161.756 687.895 161.756C689.432 161.756 690.819 161.713 692.057 161.628C692.527 161.585 692.911 161.564 693.21 161.564C693.509 161.521 693.744 161.479 693.914 161.436C694.085 161.351 694.192 161.222 694.235 161.052C694.32 160.838 694.363 160.561 694.363 160.219V156.313C693.552 156.313 692.591 156.313 691.481 156.313C690.371 156.27 689.218 156.249 688.023 156.249C686.87 156.249 685.739 156.27 684.629 156.313C683.519 156.313 682.558 156.313 681.747 156.313V160.219ZM689.88 183.209C689.88 181.288 690.222 179.559 690.905 178.022C691.63 176.485 692.612 175.183 693.85 174.116C695.131 173.048 696.668 172.237 698.461 171.682C700.254 171.127 702.239 170.85 704.417 170.85C706.423 170.85 708.259 171.127 709.924 171.682C711.632 172.237 713.083 173.048 714.279 174.116C715.517 175.183 716.477 176.485 717.161 178.022C717.844 179.516 718.185 181.245 718.185 183.209C718.185 184.96 717.865 186.582 717.225 188.076C716.627 189.57 715.73 190.873 714.535 191.983C713.34 193.093 711.888 193.968 710.18 194.608C708.515 195.249 706.594 195.569 704.417 195.569C702.239 195.569 700.254 195.249 698.461 194.608C696.711 193.968 695.195 193.093 693.914 191.983C692.634 190.873 691.63 189.57 690.905 188.076C690.222 186.582 689.88 184.96 689.88 183.209ZM699.358 183.081C699.358 184.319 699.806 185.344 700.703 186.155C701.599 186.923 702.773 187.308 704.225 187.308C705.719 187.308 706.914 186.923 707.811 186.155C708.75 185.344 709.22 184.319 709.22 183.081C709.22 181.715 708.771 180.669 707.875 179.943C706.978 179.175 705.762 178.791 704.225 178.791C702.773 178.791 701.599 179.153 700.703 179.879C699.806 180.562 699.358 181.63 699.358 183.081ZM712.486 145.874C712.4 144.081 712.742 142.737 713.51 141.84C714.322 140.901 715.517 140.431 717.097 140.431C718.548 140.431 719.722 140.879 720.619 141.776C721.558 142.63 722.07 144.081 722.156 146.131C722.241 148.308 722.284 150.25 722.284 151.958C722.326 153.623 722.348 155.203 722.348 156.697C722.348 158.149 722.326 159.536 722.284 160.86C722.284 162.183 722.262 163.549 722.22 164.958C722.134 167.007 721.686 168.63 720.875 169.825C720.064 171.02 718.847 171.618 717.225 171.618C715.602 171.618 714.407 171.149 713.638 170.209C712.913 169.227 712.614 167.648 712.742 165.47C712.785 164.36 712.806 163.016 712.806 161.436C712.849 159.856 712.849 158.191 712.806 156.441C712.806 154.648 712.763 152.833 712.678 150.998C712.635 149.162 712.571 147.454 712.486 145.874Z" fill="#FEEEEA"/>
<path d="M643.136 195.185C641.898 195.185 640.724 194.758 639.614 193.904C638.546 193.05 637.97 191.79 637.885 190.125C637.885 189.613 637.863 188.994 637.821 188.268C637.821 187.543 637.799 186.753 637.757 185.899C637.757 185.045 637.757 184.148 637.757 183.209C637.757 182.27 637.757 181.331 637.757 180.391C634.64 180.349 631.609 180.285 628.663 180.199C625.76 180.114 623.134 179.965 620.786 179.751C618.822 179.58 617.456 179.111 616.688 178.342C615.919 177.531 615.578 176.506 615.663 175.268C615.749 174.03 616.154 173.027 616.88 172.259C617.648 171.447 619.057 171.084 621.107 171.17C624.565 171.298 628.151 171.405 631.865 171.49C635.622 171.533 639.358 171.554 643.072 171.554C646.829 171.554 650.543 171.533 654.215 171.49C657.886 171.405 661.387 171.277 664.717 171.106C666.894 171.02 668.41 171.426 669.264 172.323C670.16 173.176 670.609 174.265 670.609 175.589C670.609 176.827 670.267 177.787 669.584 178.47C668.944 179.111 667.812 179.516 666.19 179.687C664.311 179.901 661.814 180.071 658.697 180.199C655.624 180.285 652.251 180.349 648.579 180.391C648.537 181.758 648.494 183.167 648.451 184.618C648.451 186.027 648.451 187.308 648.451 188.46C648.451 189.613 648.28 190.595 647.939 191.406C647.64 192.26 647.234 192.964 646.722 193.519C646.252 194.074 645.697 194.48 645.057 194.736C644.417 195.035 643.776 195.185 643.136 195.185ZM621.363 158.618C621.363 156.996 621.363 155.651 621.363 154.584C621.363 153.516 621.363 152.599 621.363 151.83C621.405 151.019 621.427 150.293 621.427 149.653C621.469 149.012 621.533 148.287 621.619 147.475C621.747 146.067 622.195 145.021 622.964 144.338C623.732 143.612 624.992 143.228 626.742 143.185C629.432 143.142 632.185 143.099 635.003 143.057C637.863 143.014 640.702 142.993 643.52 142.993C646.338 142.95 649.092 142.95 651.781 142.993C654.471 142.993 657.011 143.057 659.402 143.185C661.152 143.27 662.412 143.654 663.18 144.338C663.949 145.021 664.397 146.067 664.525 147.475C664.568 148.287 664.61 149.012 664.653 149.653C664.696 150.293 664.717 151.019 664.717 151.83C664.76 152.599 664.781 153.516 664.781 154.584C664.781 155.651 664.781 156.996 664.781 158.618C664.781 160.155 664.674 161.457 664.461 162.525C664.29 163.549 663.906 164.403 663.308 165.086C662.711 165.727 661.857 166.218 660.747 166.559C659.637 166.901 658.142 167.135 656.264 167.263C654.642 167.349 652.742 167.413 650.564 167.456C648.387 167.498 646.103 167.52 643.712 167.52C641.321 167.52 638.909 167.498 636.476 167.456C634.085 167.413 631.886 167.37 629.88 167.328C628.001 167.285 626.507 167.093 625.397 166.751C624.287 166.41 623.433 165.897 622.836 165.214C622.238 164.488 621.832 163.592 621.619 162.525C621.448 161.457 621.363 160.155 621.363 158.618ZM631.033 152.791C630.99 153.602 630.969 154.264 630.969 154.776C631.011 155.246 631.054 155.886 631.097 156.697C631.182 157.594 631.374 158.191 631.673 158.49C632.014 158.789 632.676 158.96 633.658 159.002C634.896 159.045 636.326 159.088 637.949 159.131C639.614 159.131 641.3 159.131 643.008 159.131C644.758 159.131 646.466 159.131 648.131 159.131C649.796 159.088 651.248 159.045 652.486 159.002C653.468 158.96 654.108 158.789 654.407 158.49C654.748 158.191 654.962 157.594 655.047 156.697C655.09 155.886 655.111 155.246 655.111 154.776C655.154 154.264 655.154 153.602 655.111 152.791C655.069 152.321 654.962 152.001 654.791 151.83C654.663 151.659 654.321 151.553 653.766 151.51C652.656 151.425 651.119 151.382 649.156 151.382C647.234 151.339 645.207 151.318 643.072 151.318C640.98 151.318 638.952 151.339 636.988 151.382C635.024 151.425 633.487 151.467 632.377 151.51C631.822 151.553 631.459 151.659 631.289 151.83C631.161 152.001 631.075 152.321 631.033 152.791Z" fill="#FEEEEA"/>
<path d="M378 148C378 134.745 388.745 124 402 124H449C453.418 124 457 127.582 457 132V171C457 175.418 453.418 179 449 179H386C381.582 179 378 175.418 378 171V148Z" fill="#242945"/>
<circle cx="335" cy="231" r="18" fill="#F9502E"/>
</g>
</g>
<defs>
<filter id="filter0_d_1_1610" x="0" y="0" width="784" height="307" filterUnits="userSpaceOnUse" color-interpolation-filters="sRGB">
<feFlood flood-opacity="0" result="BackgroundImageFix"/>
<feColorMatrix in="SourceAlpha" type="matrix" values="0 0 0 0 0 0 0 0 0 0 0 0 0 0 0 0 0 0 127 0" result="hardAlpha"/>
<feOffset dx="4" dy="4"/>
<feGaussianBlur stdDeviation="5"/>
<feComposite in2="hardAlpha" operator="out"/>
<feColorMatrix type="matrix" values="0 0 0 0 0.881852 0 0 0 0 0.881852 0 0 0 0 0.881852 0 0 0 0.1 0"/>
<feBlend mode="normal" in2="BackgroundImageFix" result="effect1_dropShadow_1_1610"/>
<feBlend mode="normal" in="SourceGraphic" in2="effect1_dropShadow_1_1610" result="shape"/>
</filter>
<filter id="filter1_d_1_1610" x="0" y="0" width="784" height="307" filterUnits="userSpaceOnUse" color-interpolation-filters="sRGB">
<feFlood flood-opacity="0" result="BackgroundImageFix"/>
<feColorMatrix in="SourceAlpha" type="matrix" values="0 0 0 0 0 0 0 0 0 0 0 0 0 0 0 0 0 0 127 0" result="hardAlpha"/>
<feOffset dx="4" dy="4"/>
<feGaussianBlur stdDeviation="5"/>
<feComposite in2="hardAlpha" operator="out"/>
<feColorMatrix type="matrix" values="0 0 0 0 0.881852 0 0 0 0 0.881852 0 0 0 0 0.881852 0 0 0 0.1 0"/>
<feBlend mode="normal" in2="BackgroundImageFix" result="effect1_dropShadow_1_1610"/>
<feBlend mode="normal" in="SourceGraphic" in2="effect1_dropShadow_1_1610" result="shape"/>
</filter>
</defs>
</svg>
