<svg width="784" height="307" viewBox="0 0 784 307" fill="none" xmlns="http://www.w3.org/2000/svg">
<g filter="url(#filter0_d_1_1573)">
<g filter="url(#filter1_di_1_1573)">
<rect x="6" y="6" width="764" height="287" rx="32" fill="white" shape-rendering="crispEdges"/>
<path d="M69.4648 53.7148V78.4336H66.4023V53.7148H69.4648ZM62.082 56.3398C62.082 63.6953 59.2383 69.957 50.5703 74.0586L48.9844 71.625C55.4512 68.5488 58.459 64.3652 58.9922 58.7461H50.2422V56.3398H62.082ZM79.8828 54.8086C83.082 54.7812 85.5977 56.627 86.2266 59.3477H90.6836V53.7148H93.7188V66.9766H90.6836V61.8086H86.2539C85.6387 64.584 83.0957 66.457 79.8828 66.457C76.082 66.457 73.3477 64.0234 73.3477 60.6055C73.3477 57.2422 76.082 54.7812 79.8828 54.8086ZM79.8828 57.3516C77.75 57.3516 76.2461 58.6094 76.2461 60.6055C76.2461 62.5742 77.75 63.8867 79.8828 63.8867C81.9609 63.8867 83.4375 62.5742 83.4648 60.6055C83.4375 58.6094 81.9609 57.3516 79.8828 57.3516ZM80.4297 68.125V70.75H90.6836V68.125H93.7188V78.1328H77.4219V68.125H80.4297ZM80.4297 75.6719H90.6836V73.1016H80.4297V75.6719ZM102.031 74.0586L99.7344 81.7148H97.1367L98.5586 74.0586H102.031ZM119.832 59.6484C119.805 64.0508 122.02 68.5352 125.848 70.3672L123.988 72.8008C121.309 71.4473 119.381 68.8359 118.328 65.6914C117.248 69.0547 115.225 71.8438 112.395 73.2656L110.535 70.832C114.5 68.9453 116.77 64.2148 116.797 59.6484V55.7109H119.832V59.6484ZM130.359 53.7148V63.3945H134.16V65.9922H130.359V78.4336H127.324V53.7148H130.359ZM157.758 67.7148V70.1758H147.914V78.4062H144.906V70.1758H135.172V67.7148H157.758ZM154.996 54.9727V64.8164H137.934V54.9727H154.996ZM140.914 57.4062V62.4375H151.961V57.4062H140.914ZM179.934 53.7148V66.3203H176.926V53.7148H179.934ZM179.988 67.4688V73.8945H166.617V75.8086H180.727V78.2148H163.637V71.625H176.953V69.8203H163.582V67.4688H179.988ZM168.613 56.2305C168.613 59.375 170.691 62.3281 174.602 63.5039L173.125 65.8555C170.254 64.9805 168.203 63.1348 167.082 60.7695C165.961 63.3398 163.855 65.3496 160.902 66.293L159.371 63.9141C163.363 62.6289 165.469 59.457 165.469 56.2305V54.3164H168.613V56.2305ZM210.805 53.7148V78.4609H207.742V53.7148H210.805ZM197.488 55.5195C201.207 55.5195 203.914 58.9102 203.941 64.2422C203.914 69.6289 201.207 72.9922 197.488 72.9922C193.742 72.9922 191.035 69.6289 191.035 64.2422C191.035 58.9102 193.742 55.5195 197.488 55.5195ZM197.488 58.2539C195.383 58.2539 193.961 60.4688 193.961 64.2422C193.961 68.043 195.383 70.2578 197.488 70.2578C199.566 70.2578 200.988 68.043 200.988 64.2422C200.988 60.4688 199.566 58.2539 197.488 58.2539ZM223.273 59.6484C223.246 64.0508 225.461 68.5352 229.289 70.3672L227.43 72.8008C224.75 71.4473 222.822 68.8359 221.77 65.6914C220.689 69.0547 218.666 71.8438 215.836 73.2656L213.977 70.832C217.941 68.9453 220.211 64.2148 220.238 59.6484V55.7109H223.273V59.6484ZM233.801 53.7148V63.3945H237.602V65.9922H233.801V78.4336H230.766V53.7148H233.801Z" fill="black"/>
<path d="M54.5234 106.887C54.5234 109.953 56.5547 113.098 59.0156 114.309L58.0781 115.539C56.1641 114.533 54.5625 112.482 53.8008 110.07C53.0195 112.639 51.3789 114.826 49.4258 115.871L48.4492 114.641C50.9883 113.391 53 110.051 53.0195 106.887V103.723H54.5234V106.887ZM62.1406 102.219V109.27H65.0508V110.598H62.1406V119.582H60.6172V102.219H62.1406ZM81.8672 112.316V113.586H74.6211V119.582H73.1172V113.586H65.9688V112.316H81.8672ZM79.7969 103.195V109.953H68.0195V103.195H79.7969ZM69.5234 104.445V108.742H78.2734V104.445H69.5234ZM97.5898 102.219V111.223H96.0859V102.219H97.5898ZM97.6094 112.102V116.262H87.8633V118.137H98.2344V119.387H86.3594V115.07H96.0859V113.332H86.3203V112.102H97.6094ZM89.4258 104.055C89.4062 106.516 91.2812 108.684 93.8594 109.523L93.0977 110.715C91.0664 110.021 89.4453 108.566 88.6641 106.691C87.8828 108.713 86.252 110.305 84.1914 111.047L83.3906 109.836C86.0078 108.918 87.8633 106.613 87.8633 104.055V102.727H89.4258V104.055ZM103.41 116.691L101.887 122.004H100.441L101.516 116.691H103.41ZM116.496 105.031C116.496 107.395 118.293 109.562 120.812 110.422L119.973 111.633C118.049 110.93 116.535 109.494 115.773 107.688C115.031 109.729 113.488 111.34 111.457 112.121L110.637 110.891C113.234 109.914 114.973 107.59 114.992 104.914V103.117H116.496V105.031ZM124.27 102.219V106.75H126.887V108.039H124.27V112.785H122.746V102.219H124.27ZM118.703 113.234C122.277 113.234 124.426 114.387 124.426 116.379C124.426 118.41 122.277 119.543 118.703 119.543C115.129 119.543 112.941 118.41 112.941 116.379C112.941 114.387 115.129 113.234 118.703 113.234ZM118.703 114.465C116.086 114.465 114.465 115.188 114.484 116.379C114.465 117.609 116.086 118.312 118.703 118.332C121.34 118.312 122.941 117.609 122.941 116.379C122.941 115.188 121.34 114.465 118.703 114.465ZM132.766 103.039C135.1 103.02 136.867 104.377 137.199 106.379H140.832V102.219H142.375V111.535H140.832V107.648H137.219C136.906 109.699 135.119 111.066 132.766 111.066C130.129 111.066 128.254 109.426 128.254 107.043C128.254 104.68 130.129 103.02 132.766 103.039ZM132.766 104.348C130.988 104.328 129.719 105.441 129.719 107.043C129.719 108.625 130.988 109.777 132.766 109.777C134.523 109.777 135.773 108.625 135.773 107.043C135.773 105.441 134.523 104.328 132.766 104.348ZM132.727 112.414V114.621H140.832V112.414H142.375V119.348H131.184V112.414H132.727ZM132.727 118.098H140.832V115.852H132.727V118.098ZM153.117 113.195C156.848 113.195 159.211 114.367 159.211 116.379C159.211 118.371 156.848 119.543 153.117 119.543C149.406 119.543 147.043 118.371 147.043 116.379C147.043 114.367 149.406 113.195 153.117 113.195ZM153.117 114.367C150.344 114.387 148.547 115.148 148.566 116.379C148.547 117.59 150.344 118.332 153.117 118.332C155.891 118.332 157.668 117.59 157.688 116.379C157.668 115.148 155.891 114.387 153.117 114.367ZM159.074 103.117V104.582C159.074 105.988 159.074 107.395 158.586 109.191L157.082 109.016C157.551 107.219 157.551 105.949 157.551 104.582V104.367H147.16V103.117H159.074ZM161.086 110.324V111.574H145.285V110.324H151.828V106.965H153.332V110.324H161.086ZM176.125 102.219V107.512H178.742V108.801H176.125V114.934H174.582V102.219H176.125ZM171.438 103.566C171.438 108.039 168.234 111.359 163.234 112.922L162.57 111.691C166.73 110.393 169.445 107.912 169.777 104.855H163.293V103.566H171.438ZM176.926 117.922V119.211H165.246V113.645H166.77V117.922H176.926Z" fill="#999999"/>
</g>
<mask id="mask0_1_1573" style="mask-type:alpha" maskUnits="userSpaceOnUse" x="6" y="6" width="764" height="287">
<rect x="6" y="6" width="764" height="287" rx="32" fill="white"/>
</mask>
<g mask="url(#mask0_1_1573)">
<path d="M273 188.24C273 182.585 277.585 178 283.24 178H388.2C393.855 178 398.44 182.585 398.44 188.24V292.56H273V188.24Z" fill="#FEEEEA"/>
<path d="M376.879 84.24C376.879 78.5846 381.464 74 387.119 74H492.079C497.734 74 502.319 78.5846 502.319 84.24V218H376.879V84.24Z" fill="#FEEEEA"/>
<path d="M675.76 205.2C675.76 199.545 680.344 194.96 686 194.96H790.96C796.615 194.96 801.2 199.545 801.2 205.2V292.24H675.76V205.2Z" fill="#FEEEEA"/>
<path d="M599.6 138.224C599.6 136.151 600.849 134.283 602.764 133.492L660.364 109.688C661.616 109.17 663.023 109.17 664.275 109.688L721.875 133.492C723.79 134.283 725.04 136.151 725.04 138.224V292.24H599.6V138.224Z" fill="#F96C44"/>
<path d="M348.721 145.04C348.721 139.385 353.305 134.8 358.961 134.8H463.921C469.576 134.8 474.161 139.385 474.161 145.04V292.24H348.721V145.04Z" fill="#C4D5F5"/>
<path d="M474.16 176.4C474.16 173.572 476.452 171.28 479.28 171.28H594.48C597.308 171.28 599.6 173.572 599.6 176.4V292.24H474.16V176.4Z" fill="#1C7EC7"/>
<rect x="474.16" y="93.2" width="125.44" height="117.12" rx="10.24" fill="#1C7EC7"/>
<rect x="362.801" y="150.16" width="44.8" height="21.12" rx="5.12" fill="#DAE4F9"/>
<rect x="362.801" y="180.24" width="44.8" height="21.12" rx="5.12" fill="#DAE4F9"/>
<rect x="362.801" y="210.32" width="44.8" height="21.12" rx="5.12" fill="#DAE4F9"/>
<rect x="362.801" y="240.4" width="44.8" height="21.12" rx="5.12" fill="#DAE4F9"/>
<rect x="415.279" y="150.16" width="44.8" height="21.12" rx="5.12" fill="#DAE4F9"/>
<rect x="616.879" y="150.16" width="90.88" height="21.12" rx="5.12" fill="#F88652"/>
<rect x="616.879" y="180.24" width="90.88" height="21.12" rx="5.12" fill="#F88652"/>
<rect x="616.879" y="210.32" width="90.88" height="21.12" rx="5.12" fill="#F88652"/>
<rect x="616.879" y="240.4" width="90.88" height="21.12" rx="5.12" fill="#F88652"/>
<rect x="415.279" y="180.24" width="44.8" height="21.12" rx="5.12" fill="#DAE4F9"/>
<rect x="415.279" y="210.32" width="44.8" height="21.12" rx="5.12" fill="#DAE4F9"/>
<rect x="415.279" y="240.4" width="44.8" height="21.12" rx="5.12" fill="#DAE4F9"/>
<path d="M489.52 130.96C489.52 123.891 495.25 118.16 502.32 118.16C509.389 118.16 515.12 123.891 515.12 130.96V146.32C515.12 149.148 512.827 151.44 510 151.44H494.64C491.812 151.44 489.52 149.148 489.52 146.32V130.96Z" fill="#2C93E0"/>
<path d="M489.52 174.48C489.52 167.41 495.25 161.68 502.32 161.68C509.389 161.68 515.12 167.41 515.12 174.48V189.84C515.12 192.667 512.827 194.96 510 194.96H494.64C491.812 194.96 489.52 192.667 489.52 189.84V174.48Z" fill="#2C93E0"/>
<path d="M489.52 218C489.52 210.931 495.25 205.2 502.32 205.2C509.389 205.2 515.12 210.931 515.12 218V233.36C515.12 236.188 512.827 238.48 510 238.48H494.64C491.812 238.48 489.52 236.188 489.52 233.36V218Z" fill="#2C93E0"/>
<path d="M524.08 130.96C524.08 123.891 529.811 118.16 536.88 118.16C543.949 118.16 549.68 123.891 549.68 130.96V146.32C549.68 149.148 547.388 151.44 544.56 151.44H529.2C526.372 151.44 524.08 149.148 524.08 146.32V130.96Z" fill="#2C93E0"/>
<path d="M524.08 174.48C524.08 167.41 529.811 161.68 536.88 161.68C543.949 161.68 549.68 167.41 549.68 174.48V189.84C549.68 192.667 547.388 194.96 544.56 194.96H529.2C526.372 194.96 524.08 192.667 524.08 189.84V174.48Z" fill="#2C93E0"/>
<path d="M524.08 218C524.08 210.931 529.811 205.2 536.88 205.2C543.949 205.2 549.68 210.931 549.68 218V233.36C549.68 236.188 547.388 238.48 544.56 238.48H529.2C526.372 238.48 524.08 236.188 524.08 233.36V218Z" fill="#2C93E0"/>
<path d="M558.641 130.96C558.641 123.891 564.371 118.16 571.441 118.16C578.51 118.16 584.241 123.891 584.241 130.96V146.32C584.241 149.148 581.948 151.44 579.121 151.44H563.761C560.933 151.44 558.641 149.148 558.641 146.32V130.96Z" fill="#2C93E0"/>
<path d="M558.641 174.48C558.641 167.41 564.371 161.68 571.441 161.68C578.51 161.68 584.241 167.41 584.241 174.48V189.84C584.241 192.667 581.948 194.96 579.121 194.96H563.761C560.933 194.96 558.641 192.667 558.641 189.84V174.48Z" fill="#2C93E0"/>
<path d="M558.641 218C558.641 210.931 564.371 205.2 571.441 205.2C578.51 205.2 584.241 210.931 584.241 218V233.36C584.241 236.188 581.948 238.48 579.121 238.48H563.761C560.933 238.48 558.641 236.188 558.641 233.36V218Z" fill="#2C93E0"/>
</g>
</g>
<defs>
<filter id="filter0_d_1_1573" x="0" y="0" width="784" height="307" filterUnits="userSpaceOnUse" color-interpolation-filters="sRGB">
<feFlood flood-opacity="0" result="BackgroundImageFix"/>
<feColorMatrix in="SourceAlpha" type="matrix" values="0 0 0 0 0 0 0 0 0 0 0 0 0 0 0 0 0 0 127 0" result="hardAlpha"/>
<feOffset dx="4" dy="4"/>
<feGaussianBlur stdDeviation="5"/>
<feComposite in2="hardAlpha" operator="out"/>
<feColorMatrix type="matrix" values="0 0 0 0 0.881852 0 0 0 0 0.881852 0 0 0 0 0.881852 0 0 0 0.1 0"/>
<feBlend mode="normal" in2="BackgroundImageFix" result="effect1_dropShadow_1_1573"/>
<feBlend mode="normal" in="SourceGraphic" in2="effect1_dropShadow_1_1573" result="shape"/>
</filter>
<filter id="filter1_di_1_1573" x="0" y="0" width="784" height="307" filterUnits="userSpaceOnUse" color-interpolation-filters="sRGB">
<feFlood flood-opacity="0" result="BackgroundImageFix"/>
<feColorMatrix in="SourceAlpha" type="matrix" values="0 0 0 0 0 0 0 0 0 0 0 0 0 0 0 0 0 0 127 0" result="hardAlpha"/>
<feOffset dx="4" dy="4"/>
<feGaussianBlur stdDeviation="5"/>
<feComposite in2="hardAlpha" operator="out"/>
<feColorMatrix type="matrix" values="0 0 0 0 0.881852 0 0 0 0 0.881852 0 0 0 0 0.881852 0 0 0 0.1 0"/>
<feBlend mode="normal" in2="BackgroundImageFix" result="effect1_dropShadow_1_1573"/>
<feBlend mode="normal" in="SourceGraphic" in2="effect1_dropShadow_1_1573" result="shape"/>
<feColorMatrix in="SourceAlpha" type="matrix" values="0 0 0 0 0 0 0 0 0 0 0 0 0 0 0 0 0 0 127 0" result="hardAlpha"/>
<feOffset dx="6" dy="6"/>
<feGaussianBlur stdDeviation="5"/>
<feComposite in2="hardAlpha" operator="arithmetic" k2="-1" k3="1"/>
<feColorMatrix type="matrix" values="0 0 0 0 0.958805 0 0 0 0 0.958805 0 0 0 0 0.958805 0 0 0 0.2 0"/>
<feBlend mode="normal" in2="shape" result="effect2_innerShadow_1_1573"/>
</filter>
</defs>
</svg>
