<svg width="347" height="260" viewBox="0 0 347 260" fill="none" xmlns="http://www.w3.org/2000/svg">
<g filter="url(#filter0_d_1_1511)">
<g filter="url(#filter1_di_1_1511)">
<rect x="6" y="6" width="327" height="240" rx="24" fill="white" shape-rendering="crispEdges"/>
<path d="M50.4141 36.082V42.9766H53.0312V44.793H50.4141V53.6992H48.2461V36.082H50.4141ZM45.7461 37.918C45.7461 43.1133 43.5977 47.6641 37.7188 50.5547L36.4883 48.875C40.7852 46.7363 43.1094 43.7285 43.5586 39.7148H37.4453V37.918H45.7461ZM68.6562 36.082V46.5703H66.4883V42.2539H63.4805V40.4766H66.4883V36.082H68.6562ZM62.6797 47.0195C66.4297 47.0195 68.7148 48.25 68.7148 50.3789C68.7148 52.5078 66.4297 53.7383 62.6797 53.7383C58.9492 53.7383 56.6641 52.5078 56.6836 50.3789C56.6641 48.25 58.9492 47.0195 62.6797 47.0195ZM62.6797 48.6797C60.2188 48.6797 58.832 49.2656 58.832 50.3789C58.832 51.4727 60.2188 52.0586 62.6797 52.0586C65.1406 52.0586 66.5469 51.4727 66.5469 50.3789C66.5469 49.2656 65.1406 48.6797 62.6797 48.6797ZM60.3555 39.1094C60.3555 41.2578 61.7812 43.4258 64.5156 44.3438L63.4219 46.0625C61.459 45.3984 60.0625 44.0508 59.3008 42.3906C58.5195 44.2754 57.0449 45.7793 54.9453 46.5312L53.8125 44.8125C56.6445 43.8359 58.1484 41.4531 58.1484 39.1289V38.9922H54.4766V37.2344H64.0078V38.9922H60.3555V39.1094ZM85.8438 36.082V53.7578H83.6562V36.082H85.8438ZM76.332 37.3711C78.9883 37.3711 80.9219 39.793 80.9414 43.6016C80.9219 47.4492 78.9883 49.8516 76.332 49.8516C73.6562 49.8516 71.7227 47.4492 71.7227 43.6016C71.7227 39.793 73.6562 37.3711 76.332 37.3711ZM76.332 39.3242C74.8281 39.3242 73.8125 40.9062 73.8125 43.6016C73.8125 46.3164 74.8281 47.8984 76.332 47.8984C77.8164 47.8984 78.832 46.3164 78.832 43.6016C78.832 40.9062 77.8164 39.3242 76.332 39.3242ZM94.75 40.3203C94.7305 43.4648 96.3125 46.668 99.0469 47.9766L97.7188 49.7148C95.8047 48.748 94.4277 46.8828 93.6758 44.6367C92.9043 47.0391 91.459 49.0312 89.4375 50.0469L88.1094 48.3086C90.9414 46.9609 92.5625 43.582 92.582 40.3203V37.5078H94.75V40.3203ZM102.27 36.082V42.9961H104.984V44.8516H102.27V53.7383H100.102V36.082H102.27Z" fill="black"/>
<path d="M40.1562 72.4961C40.1562 73.6445 40.7783 75.1348 42.043 75.9824C43.2734 75.1621 43.9023 73.6992 43.9023 72.4961V70.9375H44.9824V72.4961C44.9688 73.9863 45.8574 75.5312 47.457 76.2012L46.8555 77.0215C45.666 76.4883 44.8457 75.4902 44.4355 74.3145C44.0391 75.4971 43.2529 76.5908 42.0293 77.1582C40.792 76.584 39.9922 75.4424 39.6094 74.2461C39.1787 75.415 38.3516 76.4746 37.1895 77.0215L36.6152 76.2012C38.1602 75.4902 39.0762 73.8496 39.0898 72.4961V70.9375H40.1562V72.4961ZM47.6074 79.5781V80.4668H36.4922V79.5781H47.6074ZM58.627 69.9531V82.1348H57.5605V69.9531H58.627ZM54.9355 71.0879V75.4082H50.3965V78.2793C52.4131 78.2793 54.2109 78.1904 56.3848 77.8418L56.4941 78.7441C54.252 79.0996 52.4062 79.1816 50.3145 79.1816H49.3027V74.5332H53.8555V71.9766H49.2754V71.0879H54.9355ZM71.8066 76.1328V77.0078H66.7617V78.2793H70.3711V81.9434H62.1953V78.2793H65.709V77.0078H60.6777V76.1328H71.8066ZM63.248 79.1406V81.0684H69.3184V79.1406H63.248ZM70.3711 70.2539V73.0977H63.1934V74.3145H70.6309V75.1758H62.127V72.3047H69.291V71.0879H62.0859V70.2539H70.3711ZM74.7871 80.084L73.7207 83.8027H72.709L73.4609 80.084H74.7871ZM80.3242 81L80.3105 80.0977L83.6875 76.543C84.8633 75.2988 85.4238 74.6289 85.4238 73.7129C85.4238 72.7012 84.5625 72.0312 83.4551 72.0312C82.2793 72.0312 81.5273 72.7832 81.5273 73.8906H80.3652C80.3516 72.1406 81.7051 70.9648 83.4961 70.9648C85.2871 70.9648 86.5723 72.168 86.5723 73.7129C86.5723 74.8203 86.0527 75.6816 84.3027 77.4863L82.0332 79.8242V79.9062H86.75V81H80.3242ZM91.7812 81.1367C89.5801 81.1367 88.3223 79.291 88.3223 76.0508C88.3223 72.8379 89.6074 70.9648 91.7812 70.9648C93.9551 70.9648 95.2402 72.8379 95.2402 76.0508C95.2402 79.291 93.9688 81.1367 91.7812 81.1367ZM91.7812 80.043C93.2031 80.043 94.0371 78.6074 94.0371 76.0508C94.0371 73.4941 93.2031 72.0312 91.7812 72.0312C90.3594 72.0312 89.5117 73.4941 89.5117 76.0508C89.5117 78.6074 90.3457 80.043 91.7812 80.043ZM103.266 70.8828V71.7715H102.021V75.6543C102.589 75.6201 103.136 75.5723 103.662 75.5039L103.717 76.3242C101.352 76.6934 98.5762 76.7207 96.6074 76.7207L96.4707 75.8184C96.9561 75.8184 97.4824 75.8184 98.043 75.8047V71.7715H96.8125V70.8828H103.266ZM106.52 69.9531V77.459H105.439V75.2031H103.389V74.3145H105.439V73.0293H103.389V72.1406H105.439V69.9531H106.52ZM102.486 77.7188C105.029 77.7188 106.561 78.5117 106.561 79.8926C106.561 81.2871 105.029 82.0801 102.486 82.0801C99.9434 82.0801 98.4121 81.2871 98.4121 79.8926C98.4121 78.5117 99.9434 77.7188 102.486 77.7188ZM102.486 78.5527C100.613 78.5527 99.4648 79.0586 99.4785 79.8926C99.4648 80.7402 100.613 81.2324 102.486 81.2324C104.359 81.2324 105.494 80.7402 105.494 79.8926C105.494 79.0586 104.359 78.5527 102.486 78.5527ZM99.082 75.791C99.7041 75.7773 100.347 75.7568 100.982 75.7227V71.7715H99.082V75.791ZM118.934 69.9531V82.1074H117.908V75.7363H116.117V81.4785H115.133V70.2266H116.117V74.8477H117.908V69.9531H118.934ZM113.547 71.4434V72.332H110.061V78.1836C111.735 78.1768 112.897 78.1152 114.244 77.8418L114.34 78.7441C112.877 79.0449 111.633 79.0996 109.773 79.0996H108.994V71.4434H113.547ZM130.486 71.1562V79.0586H124.867V71.1562H130.486ZM125.92 72.0176V78.1836H129.434V72.0176H125.92ZM134.178 69.9531V82.1348H133.098V69.9531H134.178ZM142.395 71.0605V76.6523H136.775V71.0605H142.395ZM137.828 71.9355V75.791H141.355V71.9355H137.828ZM145.758 69.9531V73.6582H147.59V74.5605H145.758V78.8672H144.691V69.9531H145.758ZM146.318 80.9453V81.8477H138.156V78.0195H139.209V80.9453H146.318Z" fill="#999999"/>
</g>
<mask id="mask0_1_1511" style="mask-type:alpha" maskUnits="userSpaceOnUse" x="6" y="6" width="327" height="240">
<rect x="6" y="6" width="327" height="240" rx="24" fill="white"/>
</mask>
<g mask="url(#mask0_1_1511)">
<circle cx="345.799" cy="245.4" r="18.6" fill="#242945"/>
<path d="M186.801 240H356.601C356.601 245.302 352.303 249.6 347.001 249.6H196.401C191.099 249.6 186.801 245.302 186.801 240Z" fill="#242945"/>
<path d="M116.6 151.8C116.6 141.196 125.196 132.6 135.8 132.6H176V230.4C176 235.702 171.702 240 166.4 240H135.8C125.196 240 116.6 231.404 116.6 220.8V151.8Z" fill="#FEEEEA"/>
<path d="M96.8008 184.2C96.8008 173.596 105.397 165 116.001 165H146.601V230.4C146.601 235.702 142.303 240 137.001 240H116.001C105.397 240 96.8008 231.404 96.8008 220.8V184.2Z" fill="#FEEEEA"/>
<path d="M176 102C176 95.3723 181.373 89.9998 188 89.9998H365.6C372.227 89.9998 377.6 95.3723 377.6 102V230.4C377.6 235.702 373.302 240 368 240H185.6C180.298 240 176 235.702 176 230.4V102Z" fill="#F9502E"/>
<circle cx="140" cy="245.4" r="18.6" fill="#242945"/>
<path d="M226.392 175.748C228.359 175.748 229.953 177.327 229.953 179.274C229.953 181.222 228.359 182.801 226.392 182.801C224.424 182.801 222.829 181.222 222.829 179.274C222.829 177.327 224.424 175.748 226.392 175.748ZM241.432 175.748C243.399 175.748 244.993 177.327 244.993 179.274C244.993 181.222 243.399 182.801 241.432 182.801C239.464 182.801 237.869 181.222 237.869 179.274C237.869 177.327 239.465 175.748 241.432 175.748ZM232.701 147.546C233.158 147.543 233.608 147.651 234.012 147.862C234.415 148.073 234.759 148.38 235.014 148.755C235.268 149.13 235.426 149.562 235.471 150.012C235.516 150.462 235.447 150.916 235.271 151.333C235.096 151.75 234.819 152.117 234.465 152.402C235.518 153.425 236.157 154.793 236.262 156.25C237.24 157.193 237.961 158.366 238.358 159.659C240.448 159.934 245.482 161.274 245.482 167.911C245.482 168.198 245.598 168.473 245.803 168.676C246.008 168.879 246.285 168.993 246.575 168.993C246.865 168.993 247.143 168.879 247.348 168.676C247.552 168.473 247.667 168.198 247.667 167.911C247.667 158.727 239.744 157.59 237.868 157.449V157.073C237.868 155.791 238.383 154.561 239.299 153.654C240.215 152.748 241.457 152.238 242.752 152.238C245.02 152.238 247.196 153.128 248.803 154.713C250.409 156.298 251.316 158.448 251.324 160.693V166.18C251.324 168.292 250.48 170.32 248.977 171.818C247.473 173.317 245.431 174.166 243.298 174.181H233.966V174.11C233.835 174.135 233.703 174.148 233.57 174.149H231.195C230.671 174.149 230.167 173.943 229.796 173.575C229.425 173.208 229.217 172.71 229.217 172.191C229.217 171.671 229.425 171.172 229.796 170.805C230.167 170.437 230.671 170.232 231.195 170.232H233.57C233.703 170.233 233.835 170.246 233.966 170.271V166.744C233.964 166.423 233.834 166.114 233.604 165.887C233.375 165.66 233.064 165.532 232.739 165.529H223.319C222.995 165.531 222.684 165.66 222.454 165.887C222.224 166.114 222.095 166.423 222.093 166.744V168.312C222.338 168.494 222.537 168.73 222.675 169.002C222.812 169.274 222.884 169.575 222.884 169.879V172.23C222.884 172.749 222.676 173.248 222.305 173.615C221.934 173.983 221.43 174.189 220.905 174.189C220.381 174.189 219.877 173.983 219.506 173.615C219.135 173.248 218.927 172.749 218.927 172.23V169.879C218.927 169.388 219.115 168.914 219.452 168.554C219.79 168.193 220.252 167.972 220.747 167.935C219.724 167.226 218.883 166.29 218.292 165.201C217.701 164.112 217.376 162.902 217.344 161.666C217.357 160.653 217.573 159.651 217.98 158.722C218.388 157.792 218.979 156.951 219.718 156.25C219.822 154.793 220.461 153.425 221.515 152.402C221.161 152.117 220.884 151.75 220.708 151.333C220.532 150.916 220.464 150.462 220.509 150.012C220.554 149.562 220.71 149.13 220.965 148.755C221.219 148.38 221.564 148.073 221.968 147.862C222.371 147.651 222.822 147.543 223.278 147.546C223.735 147.549 224.184 147.664 224.584 147.881C224.984 148.098 225.324 148.41 225.573 148.788C225.822 149.167 225.972 149.601 226.011 150.052C227.316 149.784 228.663 149.784 229.969 150.052C230.007 149.601 230.157 149.167 230.406 148.788C230.655 148.41 230.995 148.098 231.396 147.881C231.796 147.664 232.245 147.549 232.701 147.546ZM224.855 159.291C224.436 159.291 224.032 159.456 223.735 159.75C223.439 160.044 223.272 160.443 223.272 160.858C223.272 161.274 223.439 161.673 223.735 161.967C224.032 162.261 224.436 162.426 224.855 162.426H226.343C226.695 162.426 227.038 162.31 227.316 162.096C227.595 161.881 227.793 161.581 227.879 161.242C227.938 161.011 227.943 160.77 227.894 160.536C227.844 160.303 227.741 160.084 227.593 159.896C227.445 159.707 227.255 159.555 227.038 159.45C226.822 159.346 226.584 159.291 226.343 159.291H224.855ZM224.095 155.644C223.888 155.603 223.674 155.625 223.479 155.705C223.286 155.786 223.12 155.921 223.004 156.095C222.888 156.269 222.828 156.473 222.829 156.682C222.831 156.957 222.943 157.221 223.14 157.416C223.337 157.611 223.603 157.722 223.882 157.724C224.092 157.725 224.298 157.665 224.474 157.55C224.649 157.435 224.787 157.271 224.868 157.079C224.949 156.887 224.97 156.675 224.93 156.471C224.889 156.266 224.788 156.078 224.64 155.931C224.491 155.784 224.301 155.684 224.095 155.644ZM227.896 155.644C227.689 155.684 227.499 155.784 227.351 155.931C227.202 156.078 227.1 156.266 227.06 156.471C227.019 156.675 227.041 156.887 227.122 157.079C227.203 157.271 227.34 157.435 227.516 157.55C227.691 157.665 227.898 157.725 228.108 157.724C228.387 157.722 228.654 157.611 228.851 157.416C229.047 157.221 229.159 156.957 229.161 156.682C229.163 156.473 229.101 156.269 228.985 156.095C228.869 155.921 228.704 155.786 228.51 155.705C228.316 155.625 228.102 155.603 227.896 155.644Z" fill="#F9502E"/>
<path d="M303.157 165.634C302.414 165.608 301.799 165.531 301.312 165.403C300.851 165.25 300.48 165.045 300.198 164.788C299.916 164.507 299.711 164.161 299.583 163.751C299.481 163.316 299.417 162.803 299.391 162.214C299.391 161.984 299.378 161.612 299.353 161.1C299.353 160.562 299.353 159.973 299.353 159.332C299.353 158.666 299.34 157.975 299.314 157.257C299.314 156.54 299.314 155.849 299.314 155.183C299.314 154.517 299.314 153.927 299.314 153.415C299.314 152.903 299.314 152.519 299.314 152.262C299.314 151.315 299.571 150.61 300.083 150.149C300.621 149.662 301.274 149.419 302.043 149.419C302.862 149.419 303.528 149.662 304.041 150.149C304.578 150.61 304.847 151.327 304.847 152.301V153.799C305.334 153.799 305.91 153.799 306.576 153.799C307.242 153.799 307.921 153.799 308.613 153.799C309.305 153.799 309.983 153.799 310.649 153.799C311.315 153.799 311.892 153.799 312.378 153.799V152.07C312.378 151.174 312.647 150.508 313.185 150.072C313.723 149.637 314.389 149.419 315.183 149.419C315.952 149.419 316.605 149.624 317.143 150.034C317.681 150.444 317.95 151.071 317.95 151.917C317.95 152.25 317.95 152.903 317.95 153.876C317.975 154.824 317.988 155.849 317.988 156.95C317.988 158.052 317.988 159.102 317.988 160.101C317.988 161.074 317.975 161.753 317.95 162.137C317.924 162.726 317.847 163.239 317.719 163.674C317.591 164.084 317.373 164.43 317.066 164.712C316.759 164.968 316.336 165.173 315.798 165.326C315.26 165.48 314.556 165.57 313.685 165.595C313.019 165.647 312.238 165.685 311.341 165.711C310.47 165.711 309.561 165.723 308.613 165.749C307.691 165.749 306.756 165.749 305.808 165.749C304.86 165.723 303.976 165.685 303.157 165.634ZM304.847 160.331C304.873 160.741 304.95 160.985 305.078 161.061C305.206 161.138 305.488 161.189 305.923 161.215C306.743 161.241 307.614 161.253 308.536 161.253C309.458 161.253 310.291 161.228 311.034 161.177C311.315 161.151 311.546 161.138 311.725 161.138C311.905 161.113 312.045 161.087 312.148 161.061C312.25 161.01 312.314 160.933 312.34 160.831C312.391 160.703 312.417 160.536 312.417 160.331V157.988C311.93 157.988 311.354 157.988 310.688 157.988C310.022 157.962 309.33 157.949 308.613 157.949C307.921 157.949 307.242 157.962 306.576 157.988C305.91 157.988 305.334 157.988 304.847 157.988V160.331ZM309.727 174.125C309.727 172.973 309.932 171.935 310.342 171.013C310.777 170.091 311.367 169.31 312.109 168.669C312.878 168.029 313.8 167.542 314.876 167.209C315.952 166.876 317.143 166.71 318.449 166.71C319.653 166.71 320.755 166.876 321.754 167.209C322.778 167.542 323.649 168.029 324.367 168.669C325.109 169.31 325.686 170.091 326.096 171.013C326.505 171.91 326.71 172.947 326.71 174.125C326.71 175.176 326.518 176.149 326.134 177.046C325.775 177.942 325.237 178.723 324.52 179.389C323.803 180.055 322.932 180.58 321.907 180.965C320.908 181.349 319.756 181.541 318.449 181.541C317.143 181.541 315.952 181.349 314.876 180.965C313.826 180.58 312.916 180.055 312.148 179.389C311.379 178.723 310.777 177.942 310.342 177.046C309.932 176.149 309.727 175.176 309.727 174.125ZM315.414 174.048C315.414 174.791 315.683 175.406 316.221 175.893C316.759 176.354 317.463 176.584 318.334 176.584C319.231 176.584 319.948 176.354 320.486 175.893C321.049 175.406 321.331 174.791 321.331 174.048C321.331 173.229 321.062 172.601 320.524 172.166C319.986 171.705 319.256 171.474 318.334 171.474C317.463 171.474 316.759 171.692 316.221 172.127C315.683 172.537 315.414 173.178 315.414 174.048ZM323.291 151.724C323.239 150.649 323.444 149.842 323.905 149.304C324.392 148.74 325.109 148.458 326.057 148.458C326.928 148.458 327.633 148.727 328.17 149.265C328.734 149.778 329.041 150.649 329.093 151.878C329.144 153.185 329.169 154.35 329.169 155.375C329.195 156.374 329.208 157.321 329.208 158.218C329.208 159.089 329.195 159.921 329.169 160.716C329.169 161.51 329.157 162.329 329.131 163.175C329.08 164.404 328.811 165.378 328.324 166.095C327.837 166.812 327.107 167.171 326.134 167.171C325.161 167.171 324.443 166.889 323.982 166.325C323.547 165.736 323.368 164.788 323.444 163.482C323.47 162.816 323.483 162.009 323.483 161.061C323.508 160.114 323.508 159.115 323.483 158.064C323.483 156.988 323.457 155.9 323.406 154.798C323.38 153.697 323.342 152.672 323.291 151.724Z" fill="#FEEEEA"/>
<path d="M281.681 181.311C280.938 181.311 280.233 181.054 279.567 180.542C278.927 180.03 278.581 179.274 278.53 178.275C278.53 177.968 278.517 177.596 278.492 177.161C278.492 176.725 278.479 176.252 278.453 175.739C278.453 175.227 278.453 174.689 278.453 174.125C278.453 173.562 278.453 172.998 278.453 172.435C276.583 172.409 274.765 172.371 272.997 172.32C271.255 172.268 269.68 172.179 268.271 172.051C267.093 171.948 266.273 171.666 265.812 171.205C265.351 170.719 265.146 170.104 265.197 169.361C265.248 168.618 265.492 168.016 265.927 167.555C266.388 167.068 267.234 166.851 268.463 166.902C270.538 166.979 272.69 167.043 274.918 167.094C277.172 167.12 279.414 167.132 281.642 167.132C283.897 167.132 286.125 167.12 288.328 167.094C290.531 167.043 292.631 166.966 294.629 166.863C295.936 166.812 296.845 167.056 297.358 167.593C297.895 168.106 298.164 168.759 298.164 169.553C298.164 170.296 297.959 170.872 297.55 171.282C297.165 171.666 296.487 171.91 295.513 172.012C294.386 172.14 292.888 172.243 291.018 172.32C289.173 172.371 287.15 172.409 284.947 172.435C284.921 173.254 284.896 174.1 284.87 174.971C284.87 175.816 284.87 176.585 284.87 177.276C284.87 177.968 284.767 178.557 284.563 179.044C284.383 179.556 284.14 179.979 283.832 180.312C283.551 180.645 283.218 180.888 282.833 181.042C282.449 181.221 282.065 181.311 281.681 181.311ZM268.617 159.371C268.617 158.397 268.617 157.591 268.617 156.95C268.617 156.31 268.617 155.759 268.617 155.298C268.642 154.811 268.655 154.376 268.655 153.992C268.681 153.607 268.719 153.172 268.771 152.685C268.847 151.84 269.116 151.212 269.577 150.802C270.038 150.367 270.794 150.136 271.844 150.111C273.458 150.085 275.11 150.06 276.801 150.034C278.517 150.008 280.221 149.996 281.911 149.996C283.602 149.97 285.254 149.97 286.868 149.996C288.482 149.996 290.006 150.034 291.44 150.111C292.491 150.162 293.246 150.393 293.707 150.802C294.168 151.212 294.437 151.84 294.514 152.685C294.54 153.172 294.565 153.607 294.591 153.992C294.617 154.376 294.629 154.811 294.629 155.298C294.655 155.759 294.668 156.31 294.668 156.95C294.668 157.591 294.668 158.397 294.668 159.371C294.668 160.293 294.604 161.074 294.476 161.715C294.373 162.329 294.143 162.842 293.784 163.252C293.426 163.636 292.913 163.93 292.247 164.135C291.581 164.34 290.685 164.481 289.558 164.558C288.584 164.609 287.444 164.648 286.138 164.673C284.831 164.699 283.461 164.712 282.027 164.712C280.592 164.712 279.145 164.699 277.685 164.673C276.25 164.648 274.931 164.622 273.727 164.596C272.6 164.571 271.704 164.456 271.037 164.251C270.371 164.046 269.859 163.738 269.501 163.328C269.142 162.893 268.899 162.355 268.771 161.715C268.668 161.074 268.617 160.293 268.617 159.371ZM274.419 155.874C274.393 156.361 274.38 156.758 274.38 157.065C274.406 157.347 274.432 157.731 274.457 158.218C274.508 158.756 274.624 159.115 274.803 159.294C275.008 159.473 275.405 159.576 275.994 159.601C276.737 159.627 277.595 159.653 278.568 159.678C279.567 159.678 280.579 159.678 281.604 159.678C282.654 159.678 283.679 159.678 284.678 159.678C285.677 159.653 286.548 159.627 287.291 159.601C287.88 159.576 288.264 159.473 288.443 159.294C288.648 159.115 288.776 158.756 288.828 158.218C288.853 157.731 288.866 157.347 288.866 157.065C288.892 156.758 288.892 156.361 288.866 155.874C288.84 155.593 288.776 155.4 288.674 155.298C288.597 155.195 288.392 155.131 288.059 155.106C287.393 155.055 286.471 155.029 285.293 155.029C284.14 155.003 282.923 154.991 281.642 154.991C280.387 154.991 279.17 155.003 277.992 155.029C276.814 155.055 275.892 155.08 275.226 155.106C274.893 155.131 274.675 155.195 274.572 155.298C274.496 155.4 274.444 155.593 274.419 155.874Z" fill="#FEEEEA"/>
<path d="M122.6 153C122.6 145.047 129.047 138.6 137 138.6H165.2C167.851 138.6 170 140.749 170 143.4V166.8C170 169.451 167.851 171.6 165.2 171.6H127.4C124.749 171.6 122.6 169.451 122.6 166.8V153Z" fill="#242945"/>
<circle cx="96.8" cy="202.8" r="10.8" fill="#F9502E"/>
</g>
</g>
<defs>
<filter id="filter0_d_1_1511" x="0" y="0" width="347" height="260" filterUnits="userSpaceOnUse" color-interpolation-filters="sRGB">
<feFlood flood-opacity="0" result="BackgroundImageFix"/>
<feColorMatrix in="SourceAlpha" type="matrix" values="0 0 0 0 0 0 0 0 0 0 0 0 0 0 0 0 0 0 127 0" result="hardAlpha"/>
<feOffset dx="4" dy="4"/>
<feGaussianBlur stdDeviation="5"/>
<feComposite in2="hardAlpha" operator="out"/>
<feColorMatrix type="matrix" values="0 0 0 0 0.881852 0 0 0 0 0.881852 0 0 0 0 0.881852 0 0 0 0.1 0"/>
<feBlend mode="normal" in2="BackgroundImageFix" result="effect1_dropShadow_1_1511"/>
<feBlend mode="normal" in="SourceGraphic" in2="effect1_dropShadow_1_1511" result="shape"/>
</filter>
<filter id="filter1_di_1_1511" x="0" y="0" width="347" height="260" filterUnits="userSpaceOnUse" color-interpolation-filters="sRGB">
<feFlood flood-opacity="0" result="BackgroundImageFix"/>
<feColorMatrix in="SourceAlpha" type="matrix" values="0 0 0 0 0 0 0 0 0 0 0 0 0 0 0 0 0 0 127 0" result="hardAlpha"/>
<feOffset dx="4" dy="4"/>
<feGaussianBlur stdDeviation="5"/>
<feComposite in2="hardAlpha" operator="out"/>
<feColorMatrix type="matrix" values="0 0 0 0 0.881852 0 0 0 0 0.881852 0 0 0 0 0.881852 0 0 0 0.1 0"/>
<feBlend mode="normal" in2="BackgroundImageFix" result="effect1_dropShadow_1_1511"/>
<feBlend mode="normal" in="SourceGraphic" in2="effect1_dropShadow_1_1511" result="shape"/>
<feColorMatrix in="SourceAlpha" type="matrix" values="0 0 0 0 0 0 0 0 0 0 0 0 0 0 0 0 0 0 127 0" result="hardAlpha"/>
<feOffset dx="6" dy="6"/>
<feGaussianBlur stdDeviation="5"/>
<feComposite in2="hardAlpha" operator="arithmetic" k2="-1" k3="1"/>
<feColorMatrix type="matrix" values="0 0 0 0 0.958805 0 0 0 0 0.958805 0 0 0 0 0.958805 0 0 0 0.2 0"/>
<feBlend mode="normal" in2="shape" result="effect2_innerShadow_1_1511"/>
</filter>
</defs>
</svg>
