<svg width="108" height="56" viewBox="0 0 108 56" fill="none" xmlns="http://www.w3.org/2000/svg">
<path d="M63.9293 29.0566C62.6912 29.0139 61.6666 28.8858 60.8554 28.6724C60.0869 28.4162 59.4679 28.0747 58.9983 27.6477C58.5287 27.1781 58.1871 26.6018 57.9737 25.9187C57.8029 25.1929 57.6962 24.3391 57.6535 23.3571C57.6535 22.9729 57.6321 22.3538 57.5894 21.5C57.5894 20.6034 57.5894 19.6215 57.5894 18.5542C57.5894 17.4442 57.5681 16.2915 57.5254 15.0961C57.5254 13.9007 57.5254 12.748 57.5254 11.638C57.5254 10.528 57.5254 9.54604 57.5254 8.69218C57.5254 7.83833 57.5254 7.19794 57.5254 6.77101C57.5254 5.19139 57.9523 4.01734 58.8062 3.24887C59.7027 2.43771 60.7914 2.03213 62.0722 2.03213C63.4383 2.03213 64.5483 2.43771 65.4022 3.24887C66.2987 4.01734 66.747 5.21273 66.747 6.83505V9.33257C67.5582 9.33257 68.5188 9.33257 69.6288 9.33257C70.7388 9.33257 71.8701 9.33257 73.0228 9.33257C74.1755 9.33257 75.3069 9.33257 76.4169 9.33257C77.5269 9.33257 78.4875 9.33257 79.2987 9.33257V6.45082C79.2987 4.95657 79.7469 3.84657 80.6435 3.12079C81.54 2.39502 82.65 2.03213 83.9735 2.03213C85.2543 2.03213 86.3429 2.37367 87.2395 3.05675C88.136 3.73983 88.5843 4.78581 88.5843 6.19467C88.5843 6.74967 88.5843 7.83833 88.5843 9.46065C88.627 11.0403 88.6483 12.748 88.6483 14.5838C88.6483 16.4196 88.6483 18.17 88.6483 19.835C88.6483 21.4573 88.627 22.5886 88.5843 23.229C88.5416 24.211 88.4135 25.0648 88.2001 25.7906C87.9866 26.4737 87.6237 27.05 87.1114 27.5197C86.5991 27.9466 85.8947 28.2881 84.9981 28.5443C84.1016 28.8004 82.9275 28.9499 81.476 28.9926C80.366 29.0779 79.0638 29.142 77.5696 29.1847C76.118 29.1847 74.6025 29.206 73.0228 29.2487C71.4859 29.2487 69.9276 29.2487 68.348 29.2487C66.7684 29.206 65.2955 29.142 63.9293 29.0566ZM66.747 20.2192C66.7897 20.9023 66.9178 21.3079 67.1312 21.4359C67.3447 21.564 67.8143 21.6494 68.5401 21.6921C69.9063 21.7348 71.3578 21.7561 72.8948 21.7561C74.4317 21.7561 75.8192 21.7134 77.0573 21.6281C77.5269 21.5854 77.9111 21.564 78.21 21.564C78.5088 21.5213 78.7436 21.4786 78.9144 21.4359C79.0852 21.3506 79.1919 21.2225 79.2346 21.0517C79.32 20.8382 79.3627 20.5607 79.3627 20.2192V16.3128C78.5515 16.3128 77.5909 16.3128 76.4809 16.3128C75.3709 16.2701 74.2182 16.2488 73.0228 16.2488C71.8701 16.2488 70.7388 16.2701 69.6288 16.3128C68.5188 16.3128 67.5582 16.3128 66.747 16.3128V20.2192ZM74.88 43.2092C74.88 41.288 75.2215 39.559 75.9046 38.022C76.6304 36.4851 77.6123 35.183 78.8504 34.1157C80.1312 33.0484 81.6681 32.2372 83.4612 31.6822C85.2543 31.1272 87.2395 30.8497 89.4168 30.8497C91.4234 30.8497 93.2592 31.1272 94.9242 31.6822C96.6319 32.2372 98.0834 33.0484 99.2788 34.1157C100.517 35.183 101.477 36.4851 102.161 38.022C102.844 39.5163 103.185 41.2453 103.185 43.2092C103.185 44.9596 102.865 46.5819 102.225 48.0762C101.627 49.5704 100.73 50.8725 99.535 51.9826C98.3396 53.0926 96.888 53.9678 95.1803 54.6082C93.5153 55.2485 91.5941 55.5687 89.4168 55.5687C87.2395 55.5687 85.2543 55.2485 83.4612 54.6082C81.7108 53.9678 80.1952 53.0926 78.9144 51.9826C77.6336 50.8725 76.6304 49.5704 75.9046 48.0762C75.2215 46.5819 74.88 44.9596 74.88 43.2092ZM84.3577 43.0811C84.3577 44.3192 84.806 45.3438 85.7026 46.155C86.5991 46.9235 87.7731 47.3077 89.2247 47.3077C90.7189 47.3077 91.9143 46.9235 92.8109 46.155C93.7501 45.3438 94.2197 44.3192 94.2197 43.0811C94.2197 41.715 93.7715 40.669 92.8749 39.9432C91.9784 39.1748 90.7616 38.7905 89.2247 38.7905C87.7731 38.7905 86.5991 39.1534 85.7026 39.8792C84.806 40.5623 84.3577 41.6296 84.3577 43.0811ZM97.4857 5.87447C97.4003 4.08138 97.7419 2.73656 98.5104 1.84001C99.3215 0.900773 100.517 0.431152 102.097 0.431152C103.548 0.431152 104.722 0.879426 105.619 1.77597C106.558 2.62983 107.07 4.08137 107.156 6.13062C107.241 8.30795 107.284 10.2505 107.284 11.9582C107.326 13.6232 107.348 15.2028 107.348 16.6971C107.348 18.1486 107.326 19.5361 107.284 20.8596C107.284 22.1831 107.262 23.5492 107.22 24.9581C107.134 27.0073 106.686 28.6297 105.875 29.8251C105.064 31.0205 103.847 31.6181 102.225 31.6181C100.602 31.6181 99.4069 31.1485 98.6384 30.2093C97.9127 29.2274 97.6138 27.6477 97.7419 25.4704C97.7846 24.3604 97.8059 23.0156 97.8059 21.4359C97.8486 19.8563 97.8486 18.1913 97.8059 16.4409C97.8059 14.6478 97.7632 12.8334 97.6778 10.9976C97.6352 9.1618 97.5711 7.4541 97.4857 5.87447Z" fill="#F9502E"/>
<path d="M28.1359 55.1845C26.8978 55.1845 25.7238 54.7576 24.6138 53.9037C23.5465 53.0499 22.9701 51.7904 22.8847 50.1254C22.8847 49.6131 22.8634 48.9941 22.8207 48.2683C22.8207 47.5425 22.7993 46.7527 22.7567 45.8988C22.7567 45.045 22.7567 44.1484 22.7567 43.2092C22.7567 42.27 22.7567 41.3307 22.7567 40.3915C19.6401 40.3488 16.6089 40.2848 13.6631 40.1994C10.76 40.114 8.13442 39.9646 5.78632 39.7511C3.82246 39.5803 2.45629 39.1107 1.68782 38.3422C0.919355 37.5311 0.577813 36.5065 0.663198 35.2684C0.748584 34.0303 1.15416 33.027 1.87994 32.2585C2.64841 31.4474 4.05727 31.0845 6.10651 31.1699C9.56462 31.2979 13.1508 31.4047 16.8651 31.4901C20.622 31.5328 24.3576 31.5541 28.0719 31.5541C31.8288 31.5541 35.5431 31.5328 39.2147 31.4901C42.8862 31.4047 46.387 31.2766 49.7171 31.1058C51.8944 31.0204 53.41 31.426 54.2638 32.3226C55.1604 33.1764 55.6087 34.2651 55.6087 35.5886C55.6087 36.8266 55.2671 37.7872 54.584 38.4703C53.9437 39.1107 52.8123 39.5163 51.19 39.6871C49.3115 39.9005 46.814 40.0713 43.6974 40.1994C40.6235 40.2848 37.2508 40.3488 33.5793 40.3915C33.5366 41.7577 33.4939 43.1665 33.4512 44.6181C33.4512 46.0269 33.4512 47.3077 33.4512 48.4604C33.4512 49.6131 33.2804 50.595 32.9389 51.4062C32.64 52.2601 32.2344 52.9645 31.7221 53.5195C31.2525 54.0745 30.6975 54.4801 30.0571 54.7362C29.4167 55.0351 28.7763 55.1845 28.1359 55.1845ZM6.36267 18.6182C6.36267 16.9959 6.36267 15.6511 6.36267 14.5838C6.36267 13.5165 6.36267 12.5986 6.36267 11.8301C6.40536 11.0189 6.42671 10.2932 6.42671 9.65277C6.4694 9.01238 6.53344 8.2866 6.61883 7.47544C6.7469 6.06658 7.19518 5.02061 7.96365 4.33753C8.73211 3.61176 9.99155 3.22752 11.7419 3.18483C14.4316 3.14214 17.1853 3.09944 20.003 3.05675C22.8634 3.01406 25.7024 2.99271 28.5202 2.99271C31.3379 2.95002 34.0916 2.95002 36.7812 2.99271C39.4708 2.99271 42.0111 3.05675 44.4018 3.18483C46.1522 3.27021 47.4117 3.65445 48.1801 4.33753C48.9486 5.02061 49.3969 6.06658 49.525 7.47544C49.5677 8.2866 49.6103 9.01238 49.653 9.65277C49.6957 10.2932 49.7171 11.0189 49.7171 11.8301C49.7598 12.5986 49.7811 13.5165 49.7811 14.5838C49.7811 15.6511 49.7811 16.9959 49.7811 18.6182C49.7811 20.1552 49.6744 21.4573 49.4609 22.5246C49.2902 23.5492 48.9059 24.4031 48.3082 25.0862C47.7105 25.7266 46.8567 26.2175 45.7467 26.5591C44.6367 26.9006 43.1424 27.1354 41.2639 27.2635C39.6416 27.3489 37.7418 27.4129 35.5645 27.4556C33.3871 27.4983 31.1031 27.5196 28.7123 27.5196C26.3215 27.5196 23.9094 27.4983 21.4759 27.4556C19.0851 27.4129 16.8864 27.3702 14.8799 27.3275C13.0014 27.2848 11.5071 27.0927 10.3971 26.7512C9.28712 26.4096 8.43326 25.8973 7.83557 25.2142C7.23787 24.4885 6.83229 23.5919 6.61883 22.5246C6.44806 21.4573 6.36267 20.1552 6.36267 18.6182ZM16.0326 12.7907C15.9899 13.6018 15.9685 14.2636 15.9685 14.7759C16.0112 15.2455 16.0539 15.8859 16.0966 16.6971C16.182 17.5936 16.3741 18.1913 16.673 18.4901C17.0145 18.789 17.6762 18.9598 18.6582 19.0025C19.8962 19.0452 21.3265 19.0878 22.9488 19.1305C24.6138 19.1305 26.3001 19.1305 28.0079 19.1305C29.7583 19.1305 31.466 19.1305 33.131 19.1305C34.796 19.0878 36.2475 19.0452 37.4856 19.0025C38.4676 18.9598 39.1079 18.789 39.4068 18.4901C39.7483 18.1913 39.9618 17.5936 40.0472 16.6971C40.0899 15.8859 40.1112 15.2455 40.1112 14.7759C40.1539 14.2636 40.1539 13.6018 40.1112 12.7907C40.0685 12.3211 39.9618 12.0009 39.791 11.8301C39.663 11.6593 39.3214 11.5526 38.7664 11.5099C37.6564 11.4245 36.1195 11.3818 34.1556 11.3818C32.2344 11.3391 30.2065 11.3178 28.0719 11.3178C25.98 11.3178 23.9521 11.3391 21.9882 11.3818C20.0243 11.4245 18.4874 11.4672 17.3774 11.5099C16.8224 11.5526 16.4595 11.6593 16.2887 11.8301C16.1606 12.0009 16.0753 12.3211 16.0326 12.7907Z" fill="#F9502E"/>
</svg>
